<?xml version="1.0" encoding="UTF-8" standalone="no"?>
<svg
   t="1675781584355"
   class="icon"
   viewBox="0 0 1024 1024"
   version="1.1"
   p-id="2266"
   width="200"
   height="200"
   id="svg12"
   sodipodi:docname="duru.svg"
   inkscape:version="1.2.1 (9c6d41e410, 2022-07-14)"
   xmlns:inkscape="http://www.inkscape.org/namespaces/inkscape"
   xmlns:sodipodi="http://sodipodi.sourceforge.net/DTD/sodipodi-0.dtd"
   xmlns="http://www.w3.org/2000/svg"
   xmlns:svg="http://www.w3.org/2000/svg">
  <defs
     id="defs16" />
  <sodipodi:namedview
     id="namedview14"
     pagecolor="#ffffff"
     bordercolor="#000000"
     borderopacity="0.25"
     inkscape:showpageshadow="2"
     inkscape:pageopacity="0.0"
     inkscape:pagecheckerboard="0"
     inkscape:deskcolor="#d1d1d1"
     showgrid="false"
     inkscape:zoom="2.0725"
     inkscape:cx="64.173703"
     inkscape:cy="61.761158"
     inkscape:window-width="1920"
     inkscape:window-height="1009"
     inkscape:window-x="-8"
     inkscape:window-y="-8"
     inkscape:window-maximized="1"
     inkscape:current-layer="svg12" />
  <g
     id="g804"
     transform="matrix(-1,0,0,1,1069.342,0)">
    <path
       d="M 656.384,599.8592 H 527.7696 c -5.7344,0 -10.24,-4.5056 -10.24,-10.24 0,-5.7344 4.5056,-10.24 10.24,-10.24 H 656.384 c 75.5712,0 137.0112,-55.7056 137.0112,-124.3136 v -10.4448 c 0,-37.6832 -20.6848,-72.9088 -55.0912,-94.208 -4.7104,-3.072 -6.3488,-9.216 -3.2768,-14.1312 3.072,-4.7104 9.216,-6.3488 14.1312,-3.2768 40.5504,25.1904 64.9216,66.9696 64.9216,111.8208 v 10.4448 c -0.2048,79.6672 -70.8608,144.5888 -157.696,144.5888 z"
       fill="#050505"
       p-id="2267"
       id="path2" />
    <path
       d="m 433.9712,986.3168 c -2.048,0 -4.096,-0.6144 -5.9392,-1.8432 -4.7104,-3.2768 -5.7344,-9.6256 -2.4576,-14.336 L 549.2736,795.4432 c 27.2384,-38.5024 21.0944,-90.7264 -14.5408,-121.856 l -125.952,-98.7136 c -40.7552,-36.2496 -51.6096,-107.7248 -23.552,-156.2624 48.9472,-84.992 122.6752,-214.016 126.976,-222.8224 2.048,-4.9152 7.3728,-7.5776 12.4928,-5.9392 5.3248,1.6384 8.3968,7.3728 6.5536,12.9024 -0.4096,1.4336 -1.8432,5.5296 -128.4096,226.0992 -22.9376,39.936 -13.9264,100.7616 19.2512,130.6624 l 125.952,98.7136 c 43.8272,37.888 51.4048,101.9904 18.0224,149.2992 L 442.368,982.016 c -2.048,2.8672 -5.12,4.3008 -8.3968,4.3008 z M 512.2048,195.9936 C 512,196.1984 512,196.608 512,196.608 c 0,-0.2048 0,-0.4096 0.2048,-0.6144 z"
       fill="#050505"
       p-id="2268"
       id="path4" />
    <path
       d="m 521.8304,426.8032 c -9.6256,0 -18.2272,-4.9152 -23.1424,-13.1072 -4.7104,-8.192 -4.9152,-18.0224 -0.2048,-26.4192 L 612.7616,190.8736 c 23.9616,-41.5744 14.9504,-94.4128 -21.2992,-125.952 -4.3008,-3.6864 -4.7104,-10.24 -1.024,-14.5408 3.6864,-4.3008 10.24,-4.7104 14.5408,-1.024 43.6224,37.888 54.272,101.7856 25.3952,151.7568 L 516.096,397.312 c -1.4336,2.6624 -0.4096,4.9152 0,5.7344 0.6144,0.8192 2.048,2.8672 5.12,2.8672 l 193.3312,-2.8672 c 5.5296,0 10.24,4.5056 10.4448,10.0352 0,5.7344 -4.5056,10.24 -10.0352,10.4448 z m 65.7408,330.1376 h -226.304 c -5.7344,0 -10.24,-4.5056 -10.24,-10.24 0,-5.7344 4.5056,-10.24 10.24,-10.24 h 226.304 c 18.0224,0 34.2016,-9.4208 43.008,-25.1904 8.8064,-15.7696 8.6016,-34.6112 -1.024,-50.176 l -0.2048,-0.2048 -37.4784,-65.1264 c -2.8672,-4.9152 -1.2288,-11.0592 3.6864,-13.9264 4.9152,-2.8672 11.0592,-1.2288 13.9264,3.6864 l 37.6832,64.9216 c 13.312,21.9136 13.9264,48.3328 1.4336,70.656 -12.6976,22.528 -35.4304,35.84 -61.0304,35.84 z"
       fill="#050505"
       p-id="2269"
       id="path6" />
    <path
       d="m 265.4208,255.3856 c -3.072,0 -5.9392,-1.2288 -7.9872,-3.8912 -3.4816,-4.5056 -2.6624,-10.8544 1.6384,-14.336 l 230.4,-182.272 6.3488,5.3248 c 12.0832,10.0352 27.2384,15.36 42.8032,15.36 20.48,0 39.5264,-9.216 52.224,-24.9856 3.4816,-4.5056 10.0352,-5.12 14.336,-1.6384 4.5056,3.4816 5.12,10.0352 1.6384,14.336 -16.5888,20.6848 -41.5744,32.768 -68.1984,32.768 -17.6128,0 -34.816,-5.3248 -49.152,-15.1552 L 271.7696,253.1328 c -1.8432,1.4336 -4.096,2.2528 -6.3488,2.2528 z"
       fill="#050505"
       p-id="2270"
       id="path8" />
    <path
       d="m 558.2848,131.2768 m -18.432,0 a 18.432,18.432 0 1 0 36.864,0 18.432,18.432 0 1 0 -36.864,0 z"
       fill="#050505"
       p-id="2271"
       id="path10" />
  </g>
</svg>
