<?xml version="1.0" encoding="UTF-8" standalone="no"?>
<svg
   t="1688043660702"
   class="icon"
   viewBox="0 0 1024 1024"
   version="1.1"
   p-id="9138"
   width="200"
   height="200"
   id="svg4"
   sodipodi:docname="猫咪.svg"
   inkscape:version="1.2.2 (732a01da63, 2022-12-09)"
   xmlns:inkscape="http://www.inkscape.org/namespaces/inkscape"
   xmlns:sodipodi="http://sodipodi.sourceforge.net/DTD/sodipodi-0.dtd"
   xmlns="http://www.w3.org/2000/svg"
   xmlns:svg="http://www.w3.org/2000/svg">
  <defs
     id="defs8" />
  <sodipodi:namedview
     id="namedview6"
     pagecolor="#ffffff"
     bordercolor="#000000"
     borderopacity="0.25"
     inkscape:showpageshadow="2"
     inkscape:pageopacity="0.0"
     inkscape:pagecheckerboard="0"
     inkscape:deskcolor="#d1d1d1"
     showgrid="false"
     inkscape:zoom="2.0725"
     inkscape:cx="95.778046"
     inkscape:cy="92.159228"
     inkscape:window-width="1920"
     inkscape:window-height="1009"
     inkscape:window-x="-8"
     inkscape:window-y="-8"
     inkscape:window-maximized="1"
     inkscape:current-layer="svg4" />
  <path
     d="m 280.16228,439.84395 c 0,0 261.92465,2.45606 363.73245,13.95216 0,0 91.95401,11.4961 133.0115,4.92689 0,0 55.60147,-27.8747 87.0271,-38.58665 15.26896,-5.20801 26.6023,-14.82509 43.51355,-47.6267 5.06006,-9.8242 13.1384,-19.7076 37.7729,-22.9922 0,0 5.74065,34.4883 0,52.5536 0,0 87.04192,65.69201 66.50572,108.37701 0,0 -14.57358,24.08707 -28.73282,24.63449 -13.95215,0.53264 -50.08276,-4.9269 -55.8382,0 0,0 -56.47441,34.16281 -62.40739,83.7573 -3.35859,28.14104 -11.76243,93.10805 2.45604,113.3039 31.61798,44.91913 175.71137,153.54765 133.01157,174.88276 0,0 -13.13846,7.38295 -35.30212,-9.85381 0,0 -60.76509,-65.69199 -100.99404,-80.47269 0,0 -92.78255,-53.36735 -109.20555,-81.28646 0,0 -67.3343,14.7807 -53.36735,156.0037 0,0 12.22108,21.80857 22.16364,28.73286 7.01307,4.88251 27.50484,31.33685 -13.95214,31.20369 0,0 -49.269,5.74066 -56.65195,-59.12279 0,0 -5.9034,-133.84004 -5.41516,-175.71129 l -239.27274,-0.81376 -68.9766,78.8304 c 0,0 -21.89733,45.09666 21.34991,79.64414 3.87641,3.10705 10.85989,10.8451 15.59445,12.30985 12.51698,3.87642 49.26899,-3.2846 42.69979,30.37515 0,0 -8.15231,26.2916 -57.4805,9.02526 -32.35774,-11.31855 -65.69199,-38.58666 -100.99405,-92.78255 0,0 -16.42299,-22.16365 0,-54.1959 0,0 16.42301,-64.86345 -10.66754,-60.7651 0,0 -53.36735,57.4805 -121.5154,56.65195 0,0 -73.903498,-0.81374 -75.545803,115.77476 0,0 33.659748,35.30204 -13.952147,36.94434 0,0 -36.9443593,3.2846 -32.0174557,-50.08275 0,0 4.9269037,-50.08275 26.2767987,-119.8731 0,0 5.740657,-27.09055 33.659749,-44.34209 0,0 48.440458,-23.6876 58.294258,-62.74771 0,0 13.13839,-97.36914 59.93654,-149.90794 0,0 10.66755,-37.7729 -13.13839,-88.66941 0,0 -45.9844,-81.28644 -54.1959,-174.88275 0,0 -2.45605,-48.44045 -67.334299,-122.34394 0,0 -28.333374,-50.082754 17.236757,-37.772902 0,0 100.994042,55.423922 117.002772,162.572902 0.0592,0.0295 34.96175,170.4145 95.71205,200.37538 z"
     fill="#333333"
     p-id="9139"
     id="path2"
     style="fill:#000000;stroke-width:1.47955" />
</svg>
