<?xml version="1.0" encoding="UTF-8" standalone="no"?>
<svg
   xmlns:dc="http://purl.org/dc/elements/1.1/"
   xmlns:cc="http://creativecommons.org/ns#"
   xmlns:rdf="http://www.w3.org/1999/02/22-rdf-syntax-ns#"
   xmlns:svg="http://www.w3.org/2000/svg"
   xmlns="http://www.w3.org/2000/svg"
   xmlns:sodipodi="http://sodipodi.sourceforge.net/DTD/sodipodi-0.dtd"
   xmlns:inkscape="http://www.inkscape.org/namespaces/inkscape"
   height="1366"
   node-id="1"
   sillyvg="true"
   template-height="1366"
   template-width="1366"
   version="1.1"
   viewBox="0 0 1366 1366"
   width="1366"
   id="svg98"
   sodipodi:docname="favicon.svg"
   inkscape:version="0.92.5 (2060ec1f9f, 2020-04-08)">
  <metadata
     id="metadata102">
    <rdf:RDF>
      <cc:Work
         rdf:about="">
        <dc:format>image/svg+xml</dc:format>
        <dc:type
           rdf:resource="http://purl.org/dc/dcmitype/StillImage" />
        <dc:title></dc:title>
      </cc:Work>
    </rdf:RDF>
  </metadata>
  <sodipodi:namedview
     pagecolor="#ffffff"
     bordercolor="#666666"
     borderopacity="1"
     objecttolerance="10"
     gridtolerance="10"
     guidetolerance="10"
     inkscape:pageopacity="0"
     inkscape:pageshadow="2"
     inkscape:window-width="1920"
     inkscape:window-height="988"
     id="namedview100"
     showgrid="false"
     inkscape:zoom="0.1767767"
     inkscape:cx="753.81556"
     inkscape:cy="584.12588"
     inkscape:window-x="0"
     inkscape:window-y="0"
     inkscape:window-maximized="1"
     inkscape:current-layer="svg98" />
  <defs
     node-id="52"
     id="defs5">
    <clipPath
       id="clip0_725_40514"
       node-id="49">
      <path
         d="M 0.00 0.00 L 1365.30 0.00 L 1365.30 1365.30 L 0.00 1365.30 Z"
         fill="#000000"
         fill-rule="nonzero"
         node-id="55"
         stroke="none"
         target-height="1365.3"
         target-width="1365.3"
         target-x="0"
         target-y="0"
         id="path2" />
    </clipPath>
  </defs>
  <g
     id="g1054"
     transform="matrix(1.5530488,0,0,1.5530488,-404.36559,-377.49937)">
    <path
       d="m 479.9,414.7 8.6,-4.3 8.8,-3.7 9,-3.2 9.1,-2.8 9.3,-2.3 18.9,-3.4 19,-2.3 12.8,-0.6 12.8,-0.2 12.8,0.2 12.8,0.7 12.8,1.1 12.7,1.5 12.7,2 12.6,2.4 12.4,2.9 23.3,6.6 10.7,3.6 21.2,7.9 1.3,2.7 1.7,2.3 8.1,8.3 8.3,10.4 12.1,15.9 3.6,5.6 6.8,12.1 6.5,12.3 7.8,16.8 6.2,15.1 2.1,6.7 6.6,27.3 5,29 1.3,9.8 1.8,19.5 2.6,20.5 2.5,30.8 2.6,20.4 8,38.8 4.1,14.7 4.6,14.6 4.9,14.4 5.5,14.3 11.9,26.1 6.3,12.9 6.7,12.7 7.1,12.4 22.2,35.7 14.6,21.5 26.4,40 3.8,6.7 5.1,11.1 1.3,4.3 0.8,4.4 0.1,4.4 -0.9,5.8 -2.2,5.3 -1.5,2.1 -1.8,1.9 -3.1,2.4 -3.5,1.9 -7.4,2.9 -5.3,1 -5.3,0.5 -10.8,-0.1 -10.7,-1.6 -7.8,-2 -7.7,-2.5 -6.9,-2.6 -6.8,-3 -6.6,-3.4 -9.5,-5.8 -9.2,-6.2 -11,-8.5 -10.6,-8.9 -10.2,-9.3 -19.6,-19.6 -9.5,-10.2 -11.3,-13.6 -17.4,-20 -19.1,-23.3 -4.9,-5.2 2.1,5.4 2.6,5.1 25.6,45.2 12.6,23.7 5.9,12.1 11.2,24.9 3.2,8.5 1.7,5.8 1.4,5.9 0.9,6 0.5,4.2 -0.1,4.2 -0.7,4.2 -1.1,4.1 -1.7,3.9 -2.1,3.6 -2.6,3.3 -3,2.9 -7,4.7 -7.5,3.3 -3.9,1.1 -5.4,1 -5.5,0.4 h -5.5 l -6.5,-0.5 -6.3,-1.1 -6.2,-1.7 -6,-2.2 -5.9,-2.6 -5.8,-2.9 -8.3,-4.9 -8.1,-5.3 -7.7,-6.5 -7.3,-6.8 -6.9,-7.2 -13.1,-15.2 -6.1,-7.9 -17.5,-24.5 -19.2,-29.8 -14.2,-23.4 -6.4,-7.9 -0.2,3.1 0.3,3 14.2,53.9 3.5,14.6 3,14.6 2.9,19.7 1,10 -0.1,8.7 -0.5,4.3 -1,4.2 -1,2.7 -1.4,2.6 -3.4,4.6 -4.2,3.5 -5,2.3 -2.6,0.7 -2.8,0.5 h -5.5 l -9.1,-1.7 -4.5,-1.4 -6.5,-2.6 -6.2,-3.2 -6,-3.7 -5.7,-4 -5.8,-4.8 -10.7,-10.4 -7.5,-8.3 -7.1,-8.7 -13.2,-18.1 -7.7,-12.3 -7.3,-12.5 -7,-12.8 -6.6,-12.9 -6.3,-13.1 -10.7,-24.2 -4.5,-11.1 -6.4,-17.9 -3,-6.4 -0.6,4.5 v 8.9 l 3,41.4 0.7,13.9 v 29.2 l -1.2,10.1 -1.3,4.9 -1.6,3.2 -2.8,2.4 -3.4,1.1 H 448 l -2,-0.5 -3.8,-2 -3.3,-2.7 -4.6,-4.8 -4.1,-5.3 -3.8,-5.5 -3.3,-5.9 -10.4,-20.9 -6.1,-14.3 -7.4,-20.6 -8.6,-26.7 -5.7,-20.3 -5.3,-20.5 -7.2,-32.7 -6.2,-33 -3.1,-22.1 -1,-11.1 -0.6,-2.6 -0.9,-2.5 -2.3,-4.8 -0.5,-22.2 v -22.3 l 0.5,-14.8 1,-14.8 2.9,-27.4 2,-12.6 2.4,-12.6 2.8,-12.4 3.3,-12.4 3.8,-12.2 4.1,-12.1 4.6,-11.9 3.3,-7.7 3.8,-7.4 12.7,-22.9 5.1,-7.9 5.6,-7.5 12.3,-14.4 13.3,-13.4 7.1,-6.1 7.5,-5.6 7.8,-5.3 z m -9.9,22.4 -5.3,1.7 -5.2,2.3 -3.4,1.8 -6,4.4 -2.7,2.6 -2.3,2.9 -2.6,4.6 v 2.2 l 0.7,1.5 1.3,1.2 1.6,1 1.9,0.5 1.8,0.1 1.7,-0.3 1.6,-1.2 6.6,-6.7 3.1,-2.2 3.3,-1.8 3.5,-1.5 7.3,-1.7 3.8,-0.4 7.6,0.5 5.8,1.3 2.2,0.1 2.7,-0.9 2,-1.9 1,-2.3 V 443 l -0.5,-1.8 -0.7,-1 -2.2,-1.5 -4.6,-1.6 -4.7,-1 -4.8,-0.5 -4.9,0.1 -4.8,0.5 z m 190.3,4.1 -1.3,0.5 -1.7,1.6 -0.7,1.5 -0.2,1.8 0.2,1.8 0.7,1.6 1.2,1.4 1.6,1 3.9,0.3 8.1,-0.6 4.2,0.4 4,0.8 4,1.3 3.8,1.7 3.6,2 3.5,2.5 3.1,2.7 6.5,7.5 1.3,0.6 1.5,0.1 4.5,-0.7 1,-2.1 0.7,-2.3 V 465 l -0.3,-1.5 -0.8,-1.5 -2.9,-4.1 -3.3,-3.7 -3.7,-3.4 -4.1,-3.1 -4.3,-2.6 -4.6,-2.1 -4.8,-1.7 -4.8,-1.1 -5,-0.7 h -5 l -5,0.5 z m -209.4,43.3 -4.3,2.2 -4.1,2.5 -7.4,6.1 -6.5,7.2 -2.8,3.9 -4.9,8.3 -2.6,-1.6 -9.1,-8.5 -2.6,-1.6 -1.7,-0.3 -1.5,0.1 -2.6,1.5 -1.7,2.6 -0.3,1.5 0.1,1.5 0.5,1.6 2,3.4 4.9,6 2.8,2.6 3.1,2.3 3.3,2 -1.5,2.8 -12.7,-2.1 -2.6,0.2 -1.2,0.5 -1.9,1.7 -0.7,1.9 -0.1,2 0.2,1.3 1.3,2.2 2.2,2 2.5,1.5 5.6,1.9 5.8,1.1 -0.2,6.2 0.2,6.3 0.6,6.2 1,6.2 1.5,6.1 1.9,6 2.3,5.8 2.8,5.5 3.3,5.3 3.8,5 4.2,4.5 4.8,4.2 7.4,5 4,2.1 4.2,1.6 4.3,1.2 4.4,0.8 4.4,0.3 4.5,-0.2 9.6,-2 5,-1.7 4.8,-2.2 4.6,-2.7 4.3,-3 4,-3.4 3.7,-3.7 3.4,-4.1 3,-4.3 3,-5.2 2.6,-5.4 2.3,-5.5 1.9,-5.7 1.5,-5.8 1.1,-5.9 0.7,-5.9 0.3,-6 -0.2,-6.1 -0.5,-5.9 -1,-5.9 -1.5,-5.8 -1.5,-5.1 -1.9,-5 -2.4,-4.8 -2.7,-4.7 -3.1,-4.3 -3.4,-4.1 -3.8,-3.8 -4,-3.5 -4.4,-3.1 -4.7,-2.7 -4.9,-2.1 -5.1,-1.7 -5.3,-1 -5.4,-0.5 -5.3,0.1 -4.1,0.5 -7.7,2 z m 213.6,3.6 -4.4,0.5 -4.4,1 -4.2,1.3 -8.1,3.8 -3.8,2.3 -7,5.5 -3.2,3 -4.3,5.2 -3.8,5.6 -3.3,5.9 -2.8,6.2 -2.2,6.3 -1.7,6.6 -1.1,6.6 -0.6,6.7 v 12.9 l 0.7,6.1 1.1,6.1 1.5,6 2,5.8 2.5,5.6 2.9,5.4 3.3,5.2 6.7,8 6.3,5.4 7.2,4.3 3.9,1.7 3.9,1.3 8.2,1.7 5,0.3 5,-0.3 4.9,-0.7 4.9,-1.3 4.6,-1.7 4.5,-2.1 4.3,-2.6 4,-3 7.5,-7.1 6.5,-8.2 2.8,-4.5 3.3,-6.3 2.7,-6.5 2.1,-6.7 1.5,-6.9 1,-7 0.5,-7 10.4,-0.5 3.3,-0.8 2,-0.9 1.8,-1.2 1.7,-1.7 0.8,-1.2 0.7,-2.7 -0.2,-2 -0.8,-1.9 -1.9,-1.8 -1.3,-0.6 -3.1,-0.1 -12.2,1.4 -3.1,-0.4 1.6,-1.4 5.3,-2.8 6.3,-4.4 2.8,-2.7 2.5,-2.9 2.2,-3.2 0.6,-1.3 0.2,-2.7 -0.7,-1.9 -1.2,-1.7 -1.6,-1.3 -1.8,-0.8 -1.3,-0.1 -2.6,0.9 -7.3,6.2 -3.8,2.8 -4.2,2.3 -2.2,-5.4 -2.6,-5.2 -3,-5 -3.4,-4.7 -3.8,-4.3 -4.2,-4.1 -3.3,-2.8 -7.5,-4.7 -4,-1.8 -4.1,-1.5 -4.3,-1 -4.3,-0.7 -4.4,-0.1 z m -258.4,123.7 -4.2,1.1 -4,1.6 -4,1.9 -3.7,2.3 -3.4,2.7 -3.2,3 -2.7,3.3 -2.3,3.7 -1.9,4 -1.4,3.5 -0.9,3.6 -0.6,3.5 -0.1,3.7 0.4,4.8 0.9,4.7 1.6,4.7 2.2,4.4 2.6,4.1 3.1,3.8 3.5,3.5 3.9,2.8 4.2,2.4 4,1.8 4.1,1.2 4.3,0.7 4.3,0.2 8.6,-0.4 4.5,-0.9 4.2,-1.5 4.1,-2 3.8,-2.5 3.5,-2.8 3.2,-3.2 2.7,-3.6 2.3,-3.9 1.8,-4.2 1.1,-3.7 0.7,-3.7 0.4,-3.8 -0.5,-7.7 -1.9,-7.4 -3.3,-6.9 -2.9,-4.1 -3.3,-3.7 -3.8,-3.4 -4.1,-2.9 -4.4,-2.4 -4.6,-1.9 -4.7,-0.8 -4.7,-0.3 z m 306.4,11.9 -3.9,1.4 -3.7,1.8 -3.5,2.3 -3.3,2.6 -2.9,2.9 -2.7,3.3 -2.3,3.5 -1.9,3.6 -1.6,3.9 -1.1,4 -0.8,4.1 -0.2,4.1 0.2,4.1 0.7,4.1 1.3,4.1 3.2,6.9 4.5,6 3.6,3.6 4,3 4.4,2.6 4.7,2.1 4.8,1.4 5,0.9 7.5,0.2 7.5,-1.3 4.5,-1.6 4.2,-2.1 4,-2.6 3.6,-3 3.3,-3.4 2.8,-3.8 2,-3.6 1.6,-3.7 1.2,-3.9 0.8,-4.1 0.4,-4 V 659 l -0.4,-4 -0.9,-4 -2.9,-7.3 -4,-6.3 -2.4,-2.8 -3.7,-3.4 -4,-2.9 -4.4,-2.4 -4.7,-1.9 -4.7,-1.3 -5,-0.7 -7.4,0.1 z m -187.8,1.4 -3.4,1.2 -3.1,1.6 -3,2 -2.7,2.4 -4.5,5.5 -1.8,3.1 -1.4,3.3 -1,3.5 -0.9,4.7 -0.5,4.7 v 4.8 l 0.4,4.8 0.8,4.8 1.2,4.7 1.6,4.5 1.9,4.5 2.4,4.2 2.6,4 3,3.7 3.3,3.5 3.6,3.2 3.9,2.7 4.2,2.4 4.5,1.9 9.4,2.6 9.7,1.1 6.5,-0.1 6.4,-0.7 6.4,-1.4 6.2,-1.9 6,-2.5 5.8,-3 5.5,-3.5 5.1,-4 4.7,-4.5 3.2,-3.7 5.5,-8 4,-8.6 1.4,-4.4 1,-4.4 0.6,-4.6 0.1,-4.6 -0.3,-4.5 -0.8,-4.5 -1.3,-4.4 -1.8,-4.2 -1.5,-2.6 -1.9,-2.3 -4.5,-3.7 -5.3,-2.7 -4.3,-1.3 -4.3,-0.8 -2.9,-0.1 -5.4,0.8 -15.5,5.9 -5.4,1.2 -2.8,0.1 h -4.2 l -4,-0.7 -16,-5.1 -4,-1 -6.7,-0.6 z"
       node-id="63"
       target-height="647.5"
       target-width="594.7"
       target-x="357.8"
       target-y="391.9"
       id="path9"
       inkscape:connector-curvature="0"
       style="fill:#fefefe;fill-rule:nonzero;stroke:none" />
    <path
       d="m 463.2,491.7 4,-0.6 4,-0.2 3.8,0.2 3.8,0.7 5,1.5 4.7,2.1 4.5,2.6 4.2,3.2 3.8,3.6 3.5,4 3.1,4.3 2.5,4.6 4.2,11 1.5,6.3 1,6.4 0.4,6.6 -0.2,6.5 -0.8,6.5 -1.3,6.4 -1.9,6.2 -2.5,6.1 -4.5,8.7 -2.8,4.1 -3.1,3.8 -3.4,3.6 -3.7,3.2 -4,2.8 -4.3,2.3 -4.6,1.9 -4,1.2 -4,0.7 -4.1,0.1 -4.1,-0.3 -4.1,-0.7 -3.9,-1.2 -3.8,-1.6 -3.6,-2 -3.3,-2.4 -4,-3.6 -3.6,-3.9 -3.1,-4.3 -2.8,-4.6 -2.5,-4.7 -2,-4.9 -1.5,-5.2 -2.1,-10.5 -0.6,-10.8 0.3,-5.4 1.6,-10.6 1.3,-5.3 1.7,-5.1 2.1,-4.9 2.5,-4.8 5.1,-7.2 3,-3.3 6.6,-5.9 3.7,-2.4 3.9,-2.1 4.1,-1.6 z m -7.2,22.9 2.2,0.7 2.1,1.1 1.8,1.5 1.4,1.7 1,2.1 0.4,4.3 -0.3,1.8 -1.8,3.3 -2.8,2.6 -3.5,1.3 -1.9,0.1 -2.3,-0.5 -2.2,-1.1 -3.7,-2.9 -1.5,5.9 -0.9,6 -0.3,6.1 0.2,6 0.7,6.1 1,6 1.4,5 3.3,8.2 3.7,6 4.7,5.1 5.2,3.6 5.2,1.9 5.4,0.7 5.5,-0.7 2.6,-0.9 2.5,-1.3 4,-2.9 3.7,-3.3 3.2,-3.7 2.8,-4 2.4,-4.3 2,-4.6 1.7,-4.7 2.2,-9.5 0.5,-6 -0.1,-5.9 -0.6,-6 -1.9,-8.7 -3.4,-8.3 -2.4,-4.1 -2.9,-3.9 -4.7,-4.4 -5.3,-3.4 -3,-1.1 -3.1,-0.8 -3.1,-0.4 -3,0.1 -5.9,1.5 -5.4,2.7 -3.6,2.8 z"
       node-id="65"
       target-height="121.19998"
       target-width="94.20001"
       target-x="423"
       target-y="490.9"
       id="path11"
       inkscape:connector-curvature="0"
       style="fill:#fefefe;fill-rule:nonzero;stroke:none" />
    <path
       d="m 661.5,498.9 4,-0.6 4,-0.1 4,0.4 3.9,0.9 3.7,1.2 3.7,1.7 3.6,2 6.4,4.7 3.4,3.4 3,3.6 5.2,8 3.8,8.6 1.4,4.6 2,9.2 0.5,6.3 0.1,6.3 -0.4,6.4 -0.9,6.2 -1.4,6.2 -1.9,6 -4,8.5 -5.3,7.9 -5.2,6 -2.9,2.8 -3.2,2.5 -6.8,4.1 -7.4,2.9 -3.9,0.9 -3.9,0.4 h -3.8 l -3.9,-0.5 -3.8,-0.8 -7.2,-2.8 -3.4,-2 -6,-4.8 -3.3,-3.4 -3,-3.7 -4.9,-8 -2.6,-5.7 -2.1,-5.9 -1.5,-6.2 -1,-6.3 -0.5,-6.2 -0.1,-6.3 0.8,-7.3 1.3,-7.4 2.9,-9.5 4.1,-8.9 2.6,-4.2 3,-4 3.6,-4 4.1,-3.6 4.3,-3.2 4.7,-2.8 6.7,-2.6 z m -7.5,23.5 4.3,2.4 2.7,2.9 0.9,2.2 0.4,2.3 -0.1,2.4 -0.7,2.3 -1.1,2.1 -2.2,2.1 -1.4,0.8 -2.4,0.6 -2.3,0.1 -2.3,-0.3 -2.2,-0.8 -2,-1.2 -1.8,-1.7 -1.9,11.1 -0.3,11.2 0.5,5.6 0.8,5.6 1.3,5.4 1.7,5.4 2.1,5.2 2.4,4.1 2.8,3.8 2.2,2.3 5,3.9 2.8,1.5 2.9,1.1 5.8,0.9 5.2,-0.6 3.7,-1.2 3.6,-1.8 3.3,-2.2 3,-2.5 5.2,-6.4 4,-7.1 3,-7.8 1.6,-6 1.1,-6 0.3,-8.9 -0.8,-8.9 -2.3,-8.6 -1.6,-4.1 -2,-3.9 -2.5,-3.8 -4.1,-5 -5.2,-4.2 -2.8,-1.6 -3,-1.3 -3.1,-0.9 -3.2,-0.4 H 672 l -2.4,0.2 -4.5,1.3 -3.1,1.5 -2.9,2 z"
       node-id="67"
       target-height="121.70001"
       target-width="94.29999"
       target-x="619.9"
       target-y="498.2"
       id="path13"
       inkscape:connector-curvature="0"
       style="fill:#fefefe;fill-rule:nonzero;stroke:none" />
    <path
       d="m 571.5,271.6 7.3,-4.3 7.5,-3.8 7.7,-3.5 7.8,-3.1 16.1,-5 16.5,-3.5 16.8,-2 8.4,-0.5 19.8,0.2 11.4,0.7 11.4,1.2 11.3,1.7 11.2,2.2 11.1,2.6 11.1,2.9 10.9,3.4 11.5,4.2 11.3,4.7 14.7,7.2 14,8.3 6.7,4.7 13.9,11.1 7,6.5 6.6,7 6.1,7.4 5.7,7.7 5.1,8.1 4.7,8.4 4.1,8.6 3.1,7.8 5.3,15.8 2.1,8 1.6,8.2 1.2,8.2 15.6,8.1 15.5,8.4 15.2,8.8 15,9.2 14.6,9.7 14.4,10.2 10.4,7.9 10.3,8.3 9.9,8.6 9.7,9 8.6,8.8 8.1,9.1 5.2,6.4 9.4,13.4 4.1,7 3.7,7.3 3.1,7.6 1.9,6.1 2,10.7 0.3,8.6 -0.3,4.2 -1.7,8.5 -1.6,4 -2,3.8 -2.4,3.5 -5.7,6.3 -3.2,2.9 -5.3,3.7 -5.5,3.2 -6.5,2.9 -13.2,4.8 -16,4 -9.3,1.6 -9.4,1.3 -14.1,1.2 -14.1,0.8 -20.2,0.2 -10.1,-0.4 -10.1,-0.8 5.3,24.5 6,24.2 3.5,12 8.3,24.2 4.9,12.1 5.4,12 5.8,11.8 6.2,11.5 6.7,11.3 7,11.1 7.5,10.8 7.8,10.5 8.3,10.2 8.6,9.8 8.9,9.6 9.4,9.2 9.7,8.8 10,8.5 10.4,8 33.2,22.6 4.4,3.6 4.1,4.2 4.5,6.2 1.8,3.4 1.4,3.5 0.9,3.7 0.4,3.9 -0.3,6.1 -1.6,6 -2.7,5.5 -2.7,3.7 -6.5,6.5 -3.6,2.7 -3.8,2.3 -4.1,1.9 -8.6,2.9 -6.6,1.4 -6.7,0.9 -7.1,0.4 h -14.3 l -7.1,-0.5 -7,-0.9 -12.5,-2.2 -5.5,-0.4 -5.6,0.1 18.9,20.5 5.4,7.5 4.4,8.2 1.6,4.4 1.2,4.6 0.6,4.7 0.1,4.7 -0.5,4.7 -1,4.6 -1.6,4.4 -2.2,4.2 -2.7,3.9 -2.9,3.5 -3.4,3.3 -7.4,5.6 -4.1,2.3 -6.3,3.1 -6.5,2.6 -5.8,1.6 -5.9,1.1 -5.9,0.7 -11.9,0.2 -15,-1.4 -8.8,-1.6 -10.7,-2.4 -42.3,-11.6 -5.9,-0.7 -4.7,0.7 -1.7,0.7 -1.2,1 -1,1.4 -1,3.3 -0.8,16.2 -0.7,7.3 -1.2,7.1 -1.1,4.7 -1.6,4.5 -2,4.5 -1.9,3.5 -4.6,6.1 -2.8,2.7 -4,3.3 -4.3,2.8 -4.6,2.4 -4.8,2 -5,1.6 -5,1.1 -7.3,0.8 -7.3,0.2 -7.4,-0.2 -7.3,-0.8 -7.2,-1.3 -7.1,-1.8 -7.4,-2.3 -14.5,-5.8 -10.4,-5.1 -10.2,-5.7 -35,-22.3 -7.9,-4.5 -9.8,-4.4 h -3.1 l -2.2,0.6 -2.1,1.2 -1.9,1.5 -11.8,12.8 -5.2,5.4 -5.7,4.9 -4,3 -4.2,2.5 -4.6,2.3 -4.3,1.5 -4.4,1.2 -4.4,0.7 -4.5,0.2 -6,-0.3 -6,-0.8 -5.9,-1.4 -5.8,-1.9 -11.1,-4.7 -7.2,-4.1 -6.9,-4.5 -6.6,-4.8 -24.9,-20.2 -3,-2 -3.3,-1.5 -2.2,-0.8 -2.4,-0.3 -5,0.2 -4.7,1.2 -3.3,1.6 -3.1,2.1 -8.6,7.3 -3,2.3 -6.8,3.8 -3.5,1.4 -3.7,1.1 -3.7,0.7 -3.8,0.2 -3.9,-0.2 -5.3,-0.9 -5.1,-1.5 -4.9,-2 -4.8,-2.4 -4.5,-2.8 -4.3,-3.2 -6.2,-5.3 -5.6,-5.6 -6.9,-8.6 -6.4,-8.9 -6.1,-9.2 -5.6,-9.5 -5.1,-9.7 -4.8,-9.9 -6,-13.7 -5.6,-13.8 -5.2,-13.9 -4.9,-14.1 -5.9,-19 -5.3,-19.1 -4.7,-19.4 -4.2,-19.4 -3.7,-19.6 -6.1,-40.3 -2.6,-20.8 -2.1,-20.9 -1.7,-20.9 -1.1,-21 -0.7,-20.9 -0.1,-21 0.5,-21 1.1,-20.9 2.4,-25.8 3.9,-25.7 2.6,-12.7 3,-12.6 3.4,-12.5 3.9,-12.4 8.2,-21.7 4.1,-9.4 9,-18.5 -10,-7.4 -9.7,-7.8 -18.6,-16.3 -14.9,-15.4 -4.7,-5.4 -8.6,-11.3 -3.8,-6 -3.4,-6.3 -2.9,-6.5 -1.7,-5 -1.1,-5 -0.7,-5.2 -0.1,-5.2 0.3,-5.1 0.9,-5.1 1.4,-5.1 1.8,-4.8 2.4,-4.7 2.8,-4.4 3.3,-4.1 3.6,-3.7 3.9,-3.5 8.5,-6.1 6.8,-4 16.2,-7.7 9.4,-3.6 9.5,-3.1 9.6,-2.7 9.8,-2.3 19.9,-3.4 20,-2.2 30.1,-1.7 17.1,-0.3 28.6,0.1 22.8,1.3 6.1,-7 6.5,-6.7 6.8,-6.3 7.1,-6 7.4,-5.6 z m -1.4,25.3 -7.6,6.4 -3.5,3.6 -3.1,3.9 20.8,2 20.7,2.5 41.3,6.2 33.1,6.6 16.5,3.8 24.5,6.4 24.3,7 48.3,15.2 1.1,-0.2 1.4,2.6 3.7,0.4 14.6,5.4 54.6,23.3 -2,-7.4 -4.9,-14.4 -6.4,-13.9 -3.7,-6.7 -8.3,-12.8 -4.7,-6 -5,-5.7 -5.3,-5.5 -5.6,-5.2 -6.6,-5.4 -6.7,-5.2 -9.5,-6.2 -16.5,-8.3 -11.8,-5.2 -12,-4.6 -12.2,-4 -12.4,-3.4 -12.5,-2.8 -2.6,-0.4 h -7.6 l 1.7,-1.8 -31.1,-2.4 -10.2,-0.1 -10.2,0.5 -10.1,1.1 -10.1,1.7 -9.9,2.2 -7.4,2.1 -14.3,5.3 -13.7,6.6 -6.5,3.9 -6.4,4.2 z m -136.6,31 -24.4,2.9 -12.1,2 -20,4.3 -15.7,4.8 31.7,-4.9 21.1,-1.8 14.7,-0.9 14.8,-0.3 29.6,0.4 14.7,0.7 44.3,3.1 7.9,1.1 15.9,1.3 2.2,0.6 31.9,4.4 25.2,4.1 33.4,6.4 37.9,8.8 21.1,5.7 21,6.1 20.8,6.6 41.3,14.5 40.7,15.9 24.3,10.6 24.2,11.1 31.6,15.8 15.5,8.5 15.3,8.8 15.1,9.2 23.7,15.7 17.3,12.9 8.2,6.9 13.5,12.8 -5.2,-6.7 -5.7,-6.3 -6,-6 -19,-17.1 -0.3,0.2 -2.8,-1.7 0.1,-1.1 -10.1,-8.3 -6.5,-4.9 -13.4,-9.4 -16.8,-11.4 -17.1,-10.7 -14,-7.8 -14.2,-7.4 -43.6,-21.8 -15.1,-6.9 -15.4,-6.5 -23.2,-9.2 -23.5,-8.5 -21.5,-7.4 -21.6,-6.7 -21.9,-6.2 -22,-5.5 -22.2,-4.9 -22.3,-4.3 -22.3,-3.6 -22.5,-3.1 -17.6,-2 -35.2,-3.1 -35.2,-1.6 -17.7,-0.3 -17.6,0.3 -17.7,0.6 z m -52.8,12.5 0.4,1.1 0.5,0.4 h 0.8 l 1.2,-0.6 -0.4,-1.2 -0.5,-0.4 h -0.8 z m 23.7,6.6 -10.8,0.7 -10.7,1.3 -10.7,1.8 -15.8,3.8 -15.4,5.2 -8.6,4.3 -2.8,1.8 -4.7,4.2 -1.9,2.5 -1.5,2.8 -1.2,3.1 -0.6,4.1 -0.1,4 0.5,4 2.1,7.7 1.6,3.8 2.8,5.4 3.3,5.1 4.8,6.4 10.3,12.1 8.4,8.5 8.8,8.1 9.1,7.7 16.9,13.9 3.7,2.1 6.2,-8.8 6.5,-8.5 7,-8.3 7.4,-7.9 7.7,-7.5 8.2,-7.1 8.4,-6.7 8.8,-6.3 9.1,-5.8 8.7,-4.9 8.8,-4.4 9,-4 9.3,-3.5 9.4,-3 9.5,-2.7 9.6,-2.2 9.8,-1.8 13.1,-1.9 13.1,-1.3 13.1,-0.8 15.6,-0.2 15.5,0.4 15.6,1 11.6,1.2 23,3.5 24.4,5.3 25.5,7.1 12.6,4.2 12.5,4.6 12.2,5.1 1.2,-0.6 0.1,1.1 19.8,9.1 9.7,5 18.9,10.8 9.1,6 8.9,6.2 8.6,6.7 8.3,7.1 3.4,2.3 4.9,5.1 2.7,2.2 3,1.8 h -2 l 2.8,2.2 2.6,2.5 4.8,5.5 0.8,-0.2 2.1,2.5 -0.3,0.4 2.4,3 0.7,-0.1 1.9,3.1 6.3,8.3 5.8,8.5 5.3,8.9 4.9,9.2 4.5,9.4 3.9,9.5 3.6,9.8 5.9,20.3 6.9,31.6 1.3,9.2 11.5,0.3 -1.4,0.2 10,0.6 10,0.2 10,-0.1 26.8,-1.8 16.7,-2.5 16.5,-3.7 9.2,-3 4.5,-1.8 4.2,-2.3 1.1,0.5 1.2,-0.7 0.1,-1.2 2.5,-1.1 2.3,-1.4 4.2,-3.5 4.3,-4.8 1.6,-2.7 1.2,-3 0.3,-2 -0.3,-4.3 -1.7,-5.1 -2,-4.7 -2.6,-4.6 -6,-8.5 -3.4,-4 -10.8,-11.5 -8.9,-8.6 -9.3,-8.2 -9.5,-7.8 -9.9,-7.5 -10.1,-7.1 -20.6,-13.2 -20.7,-12.2 -32,-16.8 -32.3,-16 -23.7,-10.3 -23.9,-9.9 -24,-9.5 -18.2,-6.8 -18.3,-6.3 -18.4,-5.9 -39.2,-11.4 -20.6,-5.3 -20.8,-4.9 -20.8,-4.4 -21,-4 -21.1,-3.5 -21.1,-3.1 -21.1,-2.6 -21.2,-2.2 -21.3,-1.7 -2.8,0.1 -7.3,-0.8 -21.8,-1.1 -23.9,-0.3 -23.9,0.3 -11.9,0.7 z m 75.5,67.7 -16.2,9.5 -7.8,5.3 -7.5,5.6 -7.1,6.1 -13.3,13.4 -12.3,14.4 -5.6,7.5 -5.1,7.9 -12.7,22.9 -3.8,7.4 -3.3,7.7 -4.6,11.9 -4.1,12.1 -3.8,12.2 -3.3,12.4 -2.8,12.4 -2.4,12.6 -2,12.6 -2.9,27.4 -1,14.8 -0.5,14.8 v 22.3 l 0.5,22.2 0.6,18.5 1,18.4 1.6,18.5 2.9,27.6 3.5,27.5 3.2,19.5 3.7,19.3 4.2,19.3 4.6,19.1 5.2,19 5.9,18.8 4.7,14 5.2,13.8 5.6,13.7 6,13.6 10.6,20.4 8.1,13.2 4.3,6.3 4.8,6 5.1,5.8 5.5,5.4 -1.4,-8.7 -0.1,-4.5 0.4,-4.4 0.8,-4.3 1.3,-4.2 1.8,-4 2.3,-3.7 2.9,-3.4 3.2,-2.8 3.4,-2.3 3.7,-1.7 3.9,-1.3 4,-0.7 4.2,-0.3 4.1,0.1 4.1,0.6 4,1 9,3.5 4.4,2.2 6.2,3.7 5.9,4.2 11.2,9.3 5.3,5.1 20.2,21.6 11.7,10.3 6.5,5.1 6.8,4.7 7.1,4.2 4.9,2.4 5.1,2 5.3,1.7 4.5,0.9 4.6,0.5 4.7,-0.1 4.5,-0.7 5.8,-2 6.3,-3.7 3.2,-2.5 7.4,-7.2 8.4,-9.3 4.5,-4.2 3.2,-2.6 3.4,-2.2 3.8,-1.9 3.5,-1 3.5,-0.3 3.5,0.1 6.9,1.7 3.4,1.3 9.7,4.7 9.7,5.7 28.8,18.1 9.7,5.7 10.1,5.2 8.1,3.8 8.3,3.1 11.5,3.2 11.8,1.8 5.9,0.2 6,-0.1 5.5,-0.7 5.5,-1.4 3.5,-1.2 3.4,-1.6 3.1,-1.9 2.9,-2.3 2.4,-2.7 2.1,-3.1 1.6,-3.4 2.2,-6.8 0.9,-5.3 0.5,-5.4 0.9,-16.3 0.7,-5.4 0.9,-3.2 1.2,-3 1.7,-2.9 2,-2.6 2.3,-2.3 2.6,-2 2.9,-1.6 3,-1.2 3.3,-0.8 4.9,-0.6 4.8,-0.1 4.9,0.4 7.1,1.3 33.6,9.6 12.6,3 8.4,1.5 8.5,1 8.6,0.5 6.4,-0.2 6.5,-0.8 8.4,-2.1 8,-3.2 7.4,-4.6 2.8,-2.4 2.6,-2.9 1.4,-2.1 2.2,-4.5 0.9,-4.9 -0.2,-2.6 -0.7,-3.7 -1.1,-3.5 -1.5,-3.3 -2.8,-4.8 -3.4,-4.5 -3.7,-4.2 -12.2,-13 -2.6,-3.1 -2.3,-3.3 -1.9,-3.6 -0.9,-2.3 -0.5,-4.6 1,-4.5 2.2,-4.1 1.5,-1.8 4.3,-3 5.2,-2.1 4.1,-0.7 4.3,-0.2 4.2,0.2 19.3,2.8 15.1,1.4 7.6,0.1 7.6,-0.4 9.8,-1.6 4.9,-1.3 4.5,-1.9 5.5,-3.6 2.5,-2.3 1.7,-2.1 1.4,-2.5 0.9,-2.7 0.3,-2.7 -0.2,-1.9 -1.5,-3.4 -2.9,-3.6 -3.3,-3.1 -7.4,-5.5 -17.2,-11.4 -9.4,-6.6 -9.1,-7 -8.8,-7.4 -11.7,-10.6 -11.4,-11 -7.3,-7.6 -7.1,-7.8 -14,-17 -7,-9.1 -13.1,-18.9 -11.9,-19.7 -10.6,-20.5 -6.3,-13.9 -5.8,-14.3 -5.1,-14.4 -4.5,-13.9 -4,-14 -3.5,-14.1 -3.1,-14.3 -10,-55.9 -2.8,-13.6 -3.4,-13.4 -5.5,-17.5 -3.4,-8.6 -4.3,-9.4 -4.8,-9.2 -5.3,-8.9 -5.7,-8.6 -6.1,-8.4 -6.6,-7.9 -7,-7.6 -7.4,-7.2 -8.9,-7.9 -9.2,-7.4 -9.5,-6.9 -9.9,-6.5 -10.1,-6.2 -10.3,-5.7 -10.5,-5.4 -21.6,-9.7 -21.2,-7.9 -10.7,-3.6 -23.3,-6.6 -12.4,-2.9 -12.6,-2.4 -12.7,-2 -12.7,-1.5 -12.8,-1.1 -12.8,-0.7 -12.8,-0.2 -12.8,0.2 -12.8,0.6 -19,2.3 -9.5,1.5 -9.4,1.9 -9.3,2.3 -9.1,2.8 -9,3.2 -8.8,3.7 z m -2.4,600.5 -2.5,1.3 -2.1,1.5 -1.8,1.9 -2.8,4.5 -1,2.5 -0.9,3.9 -0.4,7.6 0.4,3.7 0.9,3.7 1.3,3.4 2.8,4 1.8,1.7 2.2,1.6 2.4,1 2.6,0.4 2.7,-0.1 2.6,-0.6 2.4,-1 3.2,-2 11.6,-9.2 6.5,-3.7 3.6,-1.3 3.7,-1 5.6,-0.8 5.8,-0.4 -17.2,-13.6 -4.5,-3.1 -8.5,-4.5 -4,-1.6 -4.1,-1 -4.1,-0.4 -2.8,0.1 -2.7,0.5 z"
       node-id="69"
       target-height="873.9"
       target-width="798.1"
       target-x="301.1"
       target-y="245.9"
       id="path15"
       inkscape:connector-curvature="0"
       style="fill:#010101;fill-rule:nonzero;stroke:none" />
    <path
       d="m 470,437.1 4.8,-0.9 4.8,-0.5 4.9,-0.1 4.8,0.5 4.7,1 4.6,1.6 1.2,0.6 1.7,1.9 0.5,1.8 v 1.9 l -1,2.3 -2,1.9 -1.3,0.6 -3.6,0.2 -5.8,-1.3 -3.7,-0.4 -7.7,0.3 -3.7,0.7 -3.6,1 -3.5,1.5 -3.3,1.8 -3.1,2.2 -5.3,5.5 -2.9,2.4 -1.7,0.3 -1.8,-0.1 -1.9,-0.5 -1.6,-1 -1.3,-1.2 -0.7,-1.5 -0.2,-1 0.8,-2.5 2,-3.3 2.3,-2.9 2.7,-2.6 6,-4.4 3.4,-1.8 5.2,-2.3 z"
       node-id="71"
       target-height="28.299988"
       target-width="59.700012"
       target-x="442.3"
       target-y="435.6"
       id="path17"
       inkscape:connector-curvature="0"
       style="fill:#010101;fill-rule:nonzero;stroke:none" />
    <path
       d="m 660.3,441.2 4.9,-1.2 5,-0.5 h 5 l 5,0.7 4.8,1.1 4.8,1.7 4.6,2.1 4.3,2.6 4.1,3.1 3.7,3.4 3.3,3.7 2.9,4.1 0.8,1.5 0.3,1.5 v 1.6 l -0.7,2.3 -1,2.1 -4.5,0.7 -1.5,-0.1 -1.3,-0.6 -6.5,-7.5 -3.1,-2.7 -3.5,-2.5 -3.6,-2 -3.8,-1.7 -4,-1.3 -4,-0.8 -4.2,-0.4 -8.1,0.6 -3.9,-0.3 -1.6,-1 -1.2,-1.4 -0.7,-1.6 -0.2,-1.8 0.2,-1.8 0.7,-1.5 1.7,-1.6 z"
       node-id="73"
       target-height="32.200012"
       target-width="57.399963"
       target-x="656.4"
       target-y="439.5"
       id="path19"
       inkscape:connector-curvature="0"
       style="fill:#010101;fill-rule:nonzero;stroke:none" />
    <path
       d="m 664.5,488.1 4.4,-0.3 4.4,0.1 4.3,0.7 4.3,1 4.1,1.5 4,1.8 7.5,4.7 3.3,2.8 4.2,4.1 3.8,4.3 3.4,4.7 3,5 2.6,5.2 2.2,5.4 4.2,-2.3 3.8,-2.8 7.3,-6.2 2.6,-0.9 1.3,0.1 1.8,0.8 1.6,1.3 1.2,1.7 0.7,1.9 -0.2,2.7 -0.6,1.3 -2.2,3.2 -2.5,2.9 -2.8,2.7 -6.3,4.4 -5.3,2.8 -1.6,1.4 3.1,0.4 12.2,-1.4 3.1,0.1 1.3,0.6 1.9,1.8 0.8,1.9 0.2,2 -0.7,2.7 -0.8,1.2 -1.7,1.7 -1.8,1.2 -2,0.9 -3.3,0.8 -10.4,0.5 -0.5,7 -1,7 -1.5,6.9 -2.1,6.7 -2.7,6.5 -3.3,6.3 -2.8,4.5 -6.5,8.2 -7.5,7.1 -4,3 -4.3,2.6 -4.5,2.1 -4.6,1.7 -4.9,1.3 -4.9,0.7 -5,0.3 -5,-0.3 -4.1,-0.7 -8,-2.3 -3.9,-1.7 -7.2,-4.3 -6.3,-5.4 -6.7,-8 -3.3,-5.2 -2.9,-5.4 -2.5,-5.6 -2,-5.8 -1.5,-6 -1.1,-6.1 -0.7,-6.1 v -12.9 l 0.6,-6.7 1.1,-6.6 1.7,-6.6 2.2,-6.3 2.8,-6.2 3.3,-5.9 3.8,-5.5 4.3,-5.3 3.2,-3 7,-5.5 3.8,-2.3 8.1,-3.8 4.2,-1.3 4.4,-1 z m -3,10.8 -6.9,2.1 -3.3,1.4 -4.7,2.8 -4.3,3.2 -4.1,3.6 -3.6,4 -3,4 -2.6,4.2 -2.2,4.4 -3.5,9.2 -1.3,4.8 -1.3,7.4 -0.8,7.3 0.1,6.3 0.5,6.2 1,6.3 1.5,6.2 2.1,5.9 2.6,5.7 2.3,4.1 2.6,3.9 3,3.7 6.2,6 3.1,2.2 7,3.6 7.4,2 3.9,0.5 h 3.8 l 3.9,-0.4 7.7,-2.1 3.6,-1.7 6.8,-4.1 3.2,-2.5 5.6,-5.7 5.3,-6.9 4.6,-8.3 1.9,-4.3 1.9,-6 1.4,-6.2 0.9,-6.2 0.4,-6.4 -0.1,-6.3 -0.5,-6.3 -0.8,-4.6 -2.6,-9.2 -1.8,-4.4 -4.4,-8.3 -2.8,-3.9 -3,-3.6 -3.4,-3.4 -3.1,-2.5 -6.9,-4.2 -3.7,-1.7 -3.7,-1.2 -3.9,-0.9 -4,-0.4 -4,0.1 z"
       node-id="75"
       target-height="142.60004"
       target-width="136"
       target-x="609.6"
       target-y="487.8"
       id="path21"
       inkscape:connector-curvature="0"
       style="fill:#010101;fill-rule:nonzero;stroke:none" />
    <path
       d="m 456,514.6 3.2,-3.2 3.6,-2.8 2.7,-1.5 5.6,-2.1 3,-0.6 3,-0.1 3.1,0.4 3.1,0.8 3,1.1 2.7,1.6 5,3.9 2.3,2.3 2.9,3.9 2.4,4.1 1.9,4.1 2.6,8.5 0.8,4.4 0.6,6 0.1,5.9 -0.5,6 -1,4.8 -2.9,9.4 -2,4.6 -2.4,4.3 -2.8,4 -3.2,3.7 -3.7,3.3 -4,2.9 -2.5,1.3 -2.6,0.9 -2.7,0.6 h -5.5 l -2.7,-0.6 -2.7,-0.8 -4.9,-2.6 -2.8,-2.1 -4.7,-5.1 -3.7,-6 -1.5,-3.2 -1.8,-5 -1.4,-5 -1,-6 -0.7,-6.1 -0.2,-6 0.3,-6.1 0.9,-6 1.5,-5.9 3.7,2.9 2.2,1.1 2.3,0.5 1.9,-0.1 1.8,-0.5 3.2,-2 2.3,-3 0.8,-1.7 0.3,-3.7 -0.4,-2.4 -1,-2.1 -1.4,-1.7 -1.8,-1.5 -2.1,-1.1 z m 18.1,39.5 1.4,2.1 2.5,1.2 1.8,0.2 3.6,-0.7 1,-1.8 0.6,-2.1 0.3,-2.1 -0.4,-2 -0.5,-1.1 -1,-1 -1.3,-0.7 -1.9,-0.5 -1.7,0.1 -1.7,0.7 -1.4,1.1 -1,1.4 -0.7,1.6 -0.1,1.8 z"
       node-id="77"
       target-height="92.79999"
       target-width="63.899994"
       target-x="443.7"
       target-y="504.3"
       id="path23"
       inkscape:connector-curvature="0"
       style="fill:#010101;fill-rule:nonzero;stroke:none" />
    <path
       d="m 654,522.4 5.1,-4.9 2.9,-2 5.3,-2.3 2.3,-0.5 5.7,-0.2 3.2,0.4 3.1,0.9 3,1.3 2.8,1.6 5.2,4.2 2.2,2.4 4.4,6.4 2,3.9 1.6,4.1 2.3,8.6 0.6,4.4 0.2,4.5 -0.3,8.9 -1.1,6 -1.6,6 -1.3,4 -3.5,7.4 -4.7,6.8 -2.7,3.1 -3,2.5 -3.3,2.2 -3.6,1.8 -3.7,1.2 -5.2,0.6 -2.6,-0.3 -3.2,-0.6 -2.9,-1.1 -2.8,-1.5 -5,-3.9 -2.2,-2.3 -2.8,-3.8 -2.4,-4.1 -2.1,-5.2 -1.7,-5.4 -1.3,-5.4 -0.8,-5.6 -0.5,-5.6 0.3,-11.2 1.9,-11.1 1.8,1.7 2,1.2 2.2,0.8 2.3,0.3 2.3,-0.1 2.4,-0.6 1.4,-0.8 2.2,-2.1 1.1,-2.1 0.7,-2.3 0.1,-2.4 -0.4,-2.3 -0.9,-2.2 -2.7,-2.9 z m 20.2,31.9 -1.2,1 -1.4,2.5 -0.2,2.9 1,2.7 1,1 2.8,1.3 1.4,0.1 2.9,-0.8 2.1,-2 0.7,-1.3 0.2,-1.4 -0.2,-1.6 -0.9,-2.6 -0.8,-0.9 -1.6,-1.1 -1.9,-0.5 -2.7,0.2 z"
       node-id="79"
       target-height="93.20001"
       target-width="64.30005"
       target-x="641.6"
       target-y="512.5"
       id="path25"
       inkscape:connector-curvature="0"
       style="fill:#010101;fill-rule:nonzero;stroke:none" />
    <path
       d="m 524.7,625.1 5.7,-1 6.7,0.6 4,1 16,5.1 4,0.7 h 4.2 l 2.8,-0.1 5.4,-1.2 15.5,-5.9 5.4,-0.8 2.9,0.1 4.3,0.8 7,2.6 5,3.1 2.1,2 1.9,2.3 1.5,2.6 1.8,4.2 1.3,4.4 0.8,4.5 0.3,4.5 -0.1,4.6 -0.6,4.6 -1,4.4 -1.4,4.4 -1.8,4.2 -2.2,4.4 -5.5,8 -3.2,3.7 -4.7,4.5 -5.1,4 -5.5,3.5 -5.8,3 -6,2.5 -6.2,1.9 -6.4,1.4 -6.4,0.7 -6.5,0.1 -4.9,-0.3 -9.5,-1.9 -4.7,-1.5 -4.5,-1.9 -4.2,-2.4 -3.9,-2.7 -3.6,-3.2 -3.3,-3.5 -3,-3.7 -2.6,-4 -2.4,-4.2 -1.9,-4.5 -1.6,-4.5 -1.2,-4.7 -0.8,-4.8 -0.4,-4.8 v -4.8 l 0.5,-4.7 0.9,-4.7 1,-3.5 1.4,-3.3 1.8,-3.1 2.1,-2.9 2.4,-2.6 2.7,-2.4 3,-2 3.1,-1.6 z m 12.6,75.3 5.2,1.6 5.2,1 5.3,0.5 h 5.3 l 5.3,-0.4 5.3,-1 5.2,-1.3 5.1,-1.8 4.9,-2.1 4.8,-2.6 4.5,-2.9 4.2,-3.2 4.9,-6.7 -6.2,-3.1 -3.3,-1 -6.9,-1 -8.8,0.4 -9.6,2.1 -9,3.3 -4.4,2.1 -4,2.5 -3.9,2.8 -3.4,3.2 -3.1,3.6 z"
       node-id="81"
       target-height="91"
       target-width="120.899994"
       target-x="502.4"
       target-y="623.5"
       id="path27"
       inkscape:connector-curvature="0"
       style="fill:#010101;fill-rule:nonzero;stroke:none" />
    <path
       d="m 570.1,296.9 6.2,-4.7 6.4,-4.2 6.5,-3.9 13.7,-6.6 14.3,-5.3 7.4,-2.1 9.9,-2.2 10.1,-1.7 10.1,-1.1 10.2,-0.5 10.2,0.1 31.1,2.4 -1.7,1.8 h 7.6 l 2.6,0.4 12.5,2.8 12.4,3.4 12.2,4 12,4.6 11.8,5.2 11.4,5.7 2.6,6.8 6.1,13 1.8,5.4 1.4,5.5 0.8,5.6 0.4,5.6 -0.1,5.6 -0.6,5.7 -1,5.6 -1.4,5.4 -1.9,5.3 -3.5,-1.2 -3.7,-0.4 -1.1,-1.6 1.7,-0.2 -0.2,-1.2 -1.2,-0.3 -0.6,0.7 -1.1,0.2 -48.3,-15.2 -24.3,-7 -24.5,-6.4 -16.5,-3.8 -33.1,-6.6 -20.6,-3.3 -20.7,-2.9 -20.7,-2.5 -20.8,-2 3.1,-3.9 3.5,-3.6 z m 69,-15.1 -7.6,7 -1.5,2.1 -1.2,2.3 1.4,4.7 4.3,0.5 2.1,-0.8 21.6,-18.5 0.2,-1.8 -0.2,-1.9 -0.6,-1.7 -1,-1.3 -0.9,-0.6 -2.5,-0.3 -3.8,2.1 -3.6,2.6 z"
       node-id="83"
       target-height="99.899994"
       target-width="244.19995"
       target-x="555.9"
       target-y="264.6"
       id="path29"
       inkscape:connector-curvature="0"
       style="fill:#fbb10a;fill-rule:nonzero;stroke:none" />
    <path
       d="m 639.1,281.8 6.7,-5.6 3.6,-2.6 3.8,-2.1 2.5,0.3 0.9,0.6 1,1.3 0.6,1.7 0.2,1.9 -0.2,1.8 -21.6,18.5 -2.1,0.8 -4.3,-0.5 -1.4,-4.7 1.2,-2.3 1.5,-2.1 z"
       node-id="85"
       target-height="26.899994"
       target-width="29.600037"
       target-x="628.8"
       target-y="271.5"
       id="path31"
       inkscape:connector-curvature="0"
       style="fill:#010109;fill-rule:nonzero;stroke:none" />
    <path
       d="m 795.7,314.8 -6.1,-13 -2.6,-6.8 5.1,2.6 9.5,6.2 13.3,10.6 5.6,5.2 5.3,5.5 5,5.7 4.7,6 4.3,6.3 7.7,13.2 3.4,6.8 5.6,14.2 4.3,14.7 -43.6,-18.8 -22.1,-8.7 1.9,-5.3 1.4,-5.4 1,-5.6 0.6,-5.7 0.1,-5.6 -0.4,-5.6 -0.8,-5.6 -1.4,-5.5 z"
       node-id="87"
       target-height="97"
       target-width="73.79999"
       target-x="787"
       target-y="295"
       id="path33"
       inkscape:connector-curvature="0"
       style="fill:#da9106;fill-rule:nonzero;stroke:none" />
    <path
       d="m 433.5,327.9 17.6,-1.2 17.7,-0.6 17.6,-0.3 17.7,0.3 35.2,1.6 35.2,3.1 17.6,2 22.5,3.1 22.3,3.6 22.3,4.3 22.2,4.9 22,5.5 21.9,6.2 21.6,6.7 21.5,7.4 23.5,8.5 23.2,9.2 15.4,6.5 15.1,6.9 43.6,21.8 14.2,7.4 14,7.8 8.6,5.2 25.3,16.9 13.4,9.4 6.5,4.9 6.3,5.3 -5.2,3.1 -14.8,-9.7 -15.1,-9.2 -15.3,-8.8 -15.5,-8.5 -31.6,-15.8 -24.2,-11.1 -24.3,-10.6 -40.7,-15.9 -41.3,-14.5 -20.8,-6.6 -21,-6.1 -21.1,-5.7 -37.9,-8.8 -33.4,-6.4 -25.2,-4.1 -31.9,-4.4 -2.2,-0.6 -2.4,-1.4 -2.5,-1 -2.6,-0.6 -4,-0.3 -4.2,0.1 -8.1,0.8 -44.3,-3.1 -14.7,-0.7 -29.6,-0.4 -14.8,0.3 -14.7,0.9 -21.1,1.8 -31.7,4.9 15.7,-4.8 20,-4.3 12.1,-2 z"
       node-id="89"
       target-height="161.6"
       target-width="616.2"
       target-x="361.3"
       target-y="325.8"
       id="path35"
       inkscape:connector-curvature="0"
       style="fill:#f9af05;fill-rule:nonzero;stroke:none" />
    <path
       d="m 532.2,338.2 8.1,-0.8 4.2,-0.1 4,0.3 2.6,0.6 2.5,1 2.4,1.4 -15.9,-1.3 z"
       node-id="91"
       target-height="3.3000183"
       target-width="23.799988"
       target-x="532.2"
       target-y="337.3"
       id="path37"
       inkscape:connector-curvature="0"
       style="fill:#f2b131;fill-rule:nonzero;stroke:none" />
    <path
       d="m 380.7,340.4 1.2,-0.7 h 0.8 l 0.5,0.4 0.4,1.2 -1.2,0.6 h -0.8 l -0.5,-0.4 z"
       node-id="93"
       target-height="2.1999817"
       target-width="2.899994"
       target-x="380.7"
       target-y="339.7"
       id="path39"
       inkscape:connector-curvature="0"
       style="fill:#000047;fill-rule:nonzero;stroke:none" />
    <path
       d="m 404.4,347 11.9,-1.2 23.8,-1 35.9,0.3 21.8,1.1 7.3,0.8 -9.9,0.9 -33.9,-1.2 -30.7,0.1 -19.6,0.7 z"
       node-id="95"
       target-height="3.100006"
       target-width="100.70001"
       target-x="404.4"
       target-y="344.8"
       id="path41"
       inkscape:connector-curvature="0"
       style="fill:#d2952a;fill-rule:nonzero;stroke:none" />
    <path
       d="m 341,359.8 15.4,-5.2 15.8,-3.8 10.7,-1.8 10.7,-1.3 10.8,-0.7 6.6,0.5 19.6,-0.7 30.7,-0.1 33.9,1.2 12.7,-1 21.3,1.7 21.2,2.2 21.1,2.6 21.1,3.1 21.1,3.5 21,4 20.8,4.4 20.8,4.9 20.6,5.3 20.6,5.8 18.6,5.6 18.4,5.9 18.3,6.3 18.2,6.8 24,9.5 23.9,9.9 23.7,10.3 32.3,16 32,16.8 20.7,12.2 20.6,13.2 10.1,7.1 9.9,7.5 9.5,7.8 9.3,8.2 8.9,8.6 10.8,11.5 3.4,4 6,8.5 2.6,4.6 2,4.7 1.7,5.1 0.3,4.3 -0.3,2 -1.2,3 -1.6,2.7 -4.3,4.8 -4.2,3.5 -2.3,1.4 -2.5,1.1 -6.6,3.7 -4.5,1.8 -9.2,3 -8.2,2 -16.6,3.1 -8.4,1.1 -16.9,1 -9.6,-0.8 -9.6,-0.3 -9.7,0.2 -9.6,0.8 -6.6,-0.1 -6.2,-9.4 -6.9,-31.6 -5.9,-20.3 -3.6,-9.8 -3.9,-9.5 -4.5,-9.4 -4.9,-9.2 -5.3,-8.9 -5.8,-8.5 -6.3,-8.3 2.6,0.9 -0.7,-2.2 -0.7,-1 -0.8,-0.7 -1,-0.3 -2,0.3 -2.4,-3 0.8,-1.2 V 480 l -0.3,-0.7 -1.4,-0.6 -1.7,0.5 -4.8,-5.5 -2.6,-2.5 -2.8,-2.2 h 2 l -1.2,-2.1 -3.1,-3.5 -1.9,-1.4 -6.1,-3.2 -10,-8.3 -8.6,-6.7 -8.9,-6.2 -18.4,-11.6 -19.3,-10.2 -19.8,-9.1 1.6,0.3 0.4,-1 -0.6,-0.9 h -0.6 l -2.1,1.1 -12.2,-5.1 -12.5,-4.6 -12.6,-4.2 -25.5,-7.1 -24.4,-5.3 -23,-3.5 -11.6,-1.2 -15.6,-1 -15.5,-0.4 -15.6,0.2 -13.1,0.8 -13.1,1.3 -13.1,1.9 -9.8,1.8 -9.6,2.2 -9.5,2.7 -9.4,3 -9.3,3.5 -9,4 -8.8,4.4 -8.7,4.9 -9.1,5.8 -8.8,6.3 -8.4,6.7 -8.2,7.1 -7.7,7.5 -7.4,7.9 -7,8.3 -6.5,8.5 -6.2,8.8 -3.7,-2.1 0.9,-4.7 -8.4,-1.7 -18.5,-15.2 -8.8,-8.1 -8.4,-8.5 -10.3,-12.1 -4.8,-6.4 -3.3,-5.1 -2.8,-5.4 -2.8,-7.6 -0.9,-3.9 -0.5,-4 0.1,-4 0.6,-4.1 1.2,-3.1 1.5,-2.8 1.9,-2.5 4.7,-4.2 7.1,-4.2 z"
       node-id="97"
       target-height="266.3"
       target-width="723.1"
       target-x="319.6"
       target-y="346.7"
       id="path43"
       inkscape:connector-curvature="0"
       style="fill:#dc9107;fill-rule:nonzero;stroke:none" />
    <path
       d="m 786.5,360.3 0.6,-0.7 1.2,0.3 0.2,1.2 -1.7,0.2 z"
       node-id="99"
       target-height="1.6999817"
       target-width="2"
       target-x="786.5"
       target-y="359.6"
       id="path45"
       inkscape:connector-curvature="0"
       style="fill:#edbf43;fill-rule:nonzero;stroke:none" />
    <path
       d="m 744.3,405.6 1.5,-0.5 0.6,0.9 -0.4,1 -0.6,0.1 -1,-0.4 z"
       node-id="101"
       target-height="2"
       target-width="2.1000366"
       target-x="744.3"
       target-y="405.1"
       id="path47"
       inkscape:connector-curvature="0"
       style="fill:#bc9768;fill-rule:nonzero;stroke:none" />
    <path
       d="m 732.2,420.8 21.6,9.7 10.5,5.4 10.3,5.7 10.1,6.2 9.9,6.5 9.5,6.9 9.2,7.4 8.9,7.9 7.4,7.2 7,7.6 6.6,7.9 6.1,8.4 5.7,8.6 5.3,8.9 4.8,9.2 4.3,9.4 6.3,17.3 2.6,8.8 3.4,13.4 2.8,13.6 7.2,41.6 5.9,28.6 3.5,14.1 4,14 4.5,13.9 5.1,14.4 5.8,14.3 6.3,13.9 10.6,20.5 11.9,19.7 13.1,18.9 7,9.1 14,17 7.1,7.8 7.3,7.6 11.4,11 11.7,10.6 8.8,7.4 9.1,7 9.4,6.6 17.2,11.4 7.4,5.5 3.3,3.1 2.9,3.6 0.9,1.7 0.8,3.6 -0.3,2.7 -0.9,2.7 -1.4,2.5 -1.7,2.1 -2.5,2.3 -2.6,2 -2.9,1.6 -4.5,1.9 -4.9,1.3 -4.9,1 -4.9,0.6 -7.6,0.4 -7.6,-0.1 -7.6,-0.6 -26.8,-3.6 -4.2,-0.2 -4.3,0.2 -4.1,0.7 -5.2,2.1 -4.3,3 -2.8,3.7 -0.9,2.2 -0.9,4.5 0.4,4.6 0.9,2.3 1.9,3.6 2.3,3.3 18.5,20.3 3.4,4.5 2.8,4.8 1.5,3.3 1.1,3.5 0.7,3.7 -0.1,5.1 -0.6,2.4 -2.2,4.5 -4,5 -2.8,2.4 -3.6,2.5 -3.8,2.1 -8,3.2 -8.4,2.1 -6.5,0.8 -6.4,0.2 -8.6,-0.5 -8.5,-1 -8.4,-1.5 -12.6,-3 -33.6,-9.6 -7.1,-1.3 -4.9,-0.4 -4.8,0.1 -4.9,0.6 -3.3,0.8 -3,1.2 -2.9,1.6 -2.6,2 -2.3,2.3 -2,2.6 -1.7,2.9 -1.2,3 -0.9,3.2 -0.7,5.4 -0.9,16.3 -0.5,5.4 -0.9,5.3 -2.2,6.8 -1.6,3.4 -2.1,3.1 -2.4,2.7 -2.9,2.3 -6.5,3.5 -3.5,1.2 -5.5,1.4 -5.5,0.7 -6,0.1 -5.9,-0.2 -11.8,-1.8 -11.5,-3.2 -8.3,-3.1 -8.1,-3.8 -10.1,-5.2 -9.7,-5.7 -28.8,-18.1 -9.7,-5.7 -9.7,-4.7 -3.4,-1.3 -6.9,-1.7 -3.5,-0.1 -3.5,0.3 -3.5,1 -3.8,1.9 -3.4,2.2 -3.2,2.6 -4.5,4.2 -8.4,9.3 -7.4,7.2 -3.2,2.5 -6.3,3.7 -5.8,2 -4.5,0.7 -4.7,0.1 -4.6,-0.5 -4.5,-0.9 -5.3,-1.7 -5.1,-2 -4.9,-2.4 -7.1,-4.2 -6.8,-4.7 -6.5,-5.1 -11.7,-10.3 -20.2,-21.6 -5.3,-5.1 -11.2,-9.3 -5.9,-4.2 -6.2,-3.7 -4.4,-2.2 -9,-3.5 -4,-1 -4.1,-0.6 -4.1,-0.1 -4.2,0.3 -4,0.7 -3.9,1.3 -3.7,1.7 -3.4,2.3 -3.2,2.8 -2.9,3.4 -2.3,3.7 -1.8,4 -1.3,4.2 -0.8,4.3 -0.4,4.4 0.1,4.5 1.4,8.7 -5.5,-5.4 -5.1,-5.8 -4.8,-6 -4.3,-6.3 -8.1,-13.2 -10.6,-20.4 -6,-13.6 -5.6,-13.7 -5.2,-13.8 -4.7,-14 -5.9,-18.8 -5.2,-19 -4.6,-19.1 -4.2,-19.3 -3.7,-19.3 -3.2,-19.5 -3.5,-27.5 -2.9,-27.6 -1.6,-18.5 -1,-18.4 -0.6,-18.5 2.3,4.8 0.9,2.5 0.6,2.6 1,11.1 3.1,22.1 6.2,33 7.2,32.7 5.3,20.5 5.7,20.3 8.6,26.7 10.3,27.8 8.3,17.7 5.3,10.3 3.3,5.9 3.8,5.5 4.1,5.3 4.6,4.8 5.2,3.9 3.9,1.3 4,-0.4 3.1,-1.7 2.2,-2.9 2,-6.6 1.2,-10.1 V 918 l -0.7,-13.9 -3,-41.4 v -8.9 l 0.6,-4.5 3,6.4 6.4,17.9 4.5,11.1 10.7,24.2 6.3,13.1 6.6,12.9 7,12.8 7.3,12.5 7.7,12.3 13.2,18.1 7.1,8.7 7.5,8.3 5.2,5.3 11.3,9.9 5.7,4 6,3.7 6.2,3.2 6.5,2.6 9,2.4 7.4,0.8 5.5,-0.6 2.6,-0.7 5,-2.3 4.2,-3.5 3.4,-4.6 1.4,-2.6 1,-2.7 1,-4.2 0.5,-4.3 0.1,-8.7 -1,-10 -2.9,-19.7 -3,-14.6 -3.5,-14.6 -14.2,-53.9 -0.3,-3 0.2,-3.1 6.4,7.9 14.2,23.4 19.2,29.8 17.5,24.5 6.1,7.9 13.1,15.2 6.9,7.2 7.3,6.8 7.7,6.5 8.1,5.3 8.3,4.9 5.8,2.9 5.9,2.6 6,2.2 6.2,1.7 6.3,1.1 12,0.5 5.5,-0.4 5.4,-1 3.9,-1.1 7.5,-3.3 3.5,-2.2 3.5,-2.5 3,-2.9 2.6,-3.3 2.1,-3.6 1.7,-3.9 1.1,-4.1 0.7,-4.2 0.1,-4.2 -1.4,-10.2 -1.4,-5.9 -1.7,-5.8 -3.2,-8.5 -3.7,-8.4 -13.4,-28.6 -12.6,-23.7 -25.6,-45.2 -2.6,-5.1 -2.1,-5.4 4.9,5.2 19.1,23.3 17.4,20 11.3,13.6 19.1,20.1 10,9.7 10.2,9.3 10.6,8.9 11,8.5 9.2,6.2 9.5,5.8 6.6,3.4 6.8,3 14.6,5.1 7.8,2 10.7,1.6 10.8,0.1 5.3,-0.5 5.3,-1 7.4,-2.9 3.5,-1.9 3.1,-2.4 3.3,-4 2.2,-5.3 0.6,-2.8 0.3,-3 -0.1,-4.4 -0.8,-4.4 -1.3,-4.3 -5.1,-11.1 -8,-13.3 -22.2,-33.4 -14.6,-21.5 -22.2,-35.7 -7.1,-12.4 -6.7,-12.7 -6.3,-12.9 -11.9,-26.1 -5.5,-14.3 -4.9,-14.4 -4.6,-14.6 -4.1,-14.7 -8,-38.8 -2.6,-20.4 -2.5,-30.8 -2.6,-20.5 -0.8,-9.8 -2.3,-19.5 -5,-29 -6.6,-27.3 -2.1,-6.7 -10,-23.5 -10.5,-20.7 -6.8,-12.1 -7.5,-11 -16.5,-20.9 -8.1,-8.3 -1.7,-2.3 z"
       node-id="103"
       target-height="680.7"
       target-width="722.39996"
       target-x="358.3"
       target-y="420.8"
       id="path49"
       inkscape:connector-curvature="0"
       style="fill:#daeefd;fill-rule:nonzero;stroke:none" />
    <path
       d="m 831.1,459.9 4.4,2.1 3.5,3 2.7,4 -3,-1.8 -2.7,-2.2 z"
       node-id="105"
       target-height="9.100006"
       target-width="10.600037"
       target-x="831.1"
       target-y="459.9"
       id="path51"
       inkscape:connector-curvature="0"
       style="fill:#cf982c;fill-rule:nonzero;stroke:none" />
    <path
       d="m 380.7,462.9 8.4,1.7 -0.8,4.5 z"
       node-id="107"
       target-height="6.200012"
       target-width="8.399994"
       target-x="380.7"
       target-y="462.9"
       id="path53"
       inkscape:connector-curvature="0"
       style="fill:#c28a25;fill-rule:nonzero;stroke:none" />
    <path
       d="m 850.7,479 0.9,-0.3 1.4,0.6 0.3,1.4 -0.5,0.8 z"
       node-id="109"
       target-height="2.7999878"
       target-width="2.5999756"
       target-x="850.7"
       target-y="478.7"
       id="path55"
       inkscape:connector-curvature="0"
       style="fill:#d1a43a;fill-rule:nonzero;stroke:none" />
    <path
       d="m 450.9,484.5 3.8,-1.6 7.7,-2 4.1,-0.5 5.3,-0.1 5.4,0.5 5.3,1 5.1,1.7 4.9,2.1 4.7,2.7 4.4,3.1 4,3.5 3.8,3.8 3.4,4.1 3.1,4.3 2.7,4.7 2.4,4.8 1.9,5 3,10.9 1,5.9 0.5,5.9 0.2,6.1 -0.3,6 -0.7,5.9 -1.1,5.9 -1.5,5.8 -1.9,5.7 -2.3,5.5 -2.6,5.4 -3,5.2 -3,4.3 -3.4,4.1 -3.7,3.7 -4,3.4 -4.3,3 -4.6,2.7 -4.8,2.2 -5,1.7 -5.1,1.2 -4.5,0.8 -4.5,0.2 -4.4,-0.3 -4.4,-0.8 -4.3,-1.2 -4.2,-1.6 -4,-2.1 -7.4,-5 -4.8,-4.2 -4.2,-4.5 -3.8,-5 -3.3,-5.3 -2.8,-5.5 -2.3,-5.8 -1.9,-6 -1.5,-6.1 -1,-6.2 -0.6,-6.2 -0.2,-6.3 0.2,-6.2 -5.8,-1.1 -5.6,-1.9 -2.5,-1.5 -2.2,-2 -1.3,-2.2 -0.2,-1.3 0.1,-2 0.7,-1.9 1.9,-1.7 1.2,-0.5 2.6,-0.2 12.7,2.1 1.5,-2.8 -3.3,-2 -3.1,-2.3 -2.8,-2.6 -4.9,-6 -2,-3.4 -0.5,-1.6 -0.1,-1.5 0.3,-1.5 1.7,-2.6 2.6,-1.5 1.5,-0.1 1.7,0.3 2.6,1.6 9.1,8.5 2.6,1.6 4.9,-8.3 2.8,-3.9 6.5,-7.2 7.4,-6.1 4.1,-2.5 z m 12.3,7.2 -4.3,1.1 -4.1,1.6 -3.9,2.1 -3.7,2.4 -6.6,5.9 -3,3.3 -5.1,7.2 -4.6,9.7 -3,10.4 -1.6,10.6 -0.2,10.8 1.4,10.7 2.7,10.4 2,4.9 2.5,4.7 2.8,4.6 3.1,4.3 3.6,3.9 4,3.6 3.3,2.4 3.6,2 3.8,1.6 3.9,1.2 4.1,0.7 4.1,0.3 4.1,-0.1 4,-0.7 4,-1.2 4.6,-1.9 4.3,-2.3 4,-2.8 3.7,-3.2 3.4,-3.6 3.1,-3.8 2.8,-4.1 4.5,-8.7 2.5,-6.1 1.9,-6.2 1.3,-6.4 0.8,-6.5 0.2,-6.5 -0.4,-6.6 -1,-6.4 -1.5,-6.3 -4.2,-11 -2.5,-4.6 -3.1,-4.3 -3.5,-4 -3.8,-3.6 -4.2,-3.2 -4.5,-2.6 -4.7,-2.1 -5,-1.5 -3.8,-0.7 -3.8,-0.2 -4,0.2 z"
       node-id="111"
       target-height="142.79999"
       target-width="132.79999"
       target-x="394.8"
       target-y="480.3"
       id="path57"
       inkscape:connector-curvature="0"
       style="fill:#020202;fill-rule:nonzero;stroke:none" />
    <path
       d="m 855.6,484.8 1.3,-0.2 1,0.3 1.5,1.7 0.7,2.2 -2.6,-0.9 z"
       node-id="113"
       target-height="4.1999817"
       target-width="4.5"
       target-x="855.6"
       target-y="484.6"
       id="path59"
       inkscape:connector-curvature="0"
       style="fill:#ce9c3d;fill-rule:nonzero;stroke:none" />
    <path
       d="m 977.5,484.3 3.8,3 -0.2,1.9 0.8,1.3 1.4,0.2 1,-0.8 19,17.1 6,6 5.7,6.3 5.2,6.7 -13.5,-12.8 -8.2,-6.9 -8.5,-6.6 -17.7,-12.3 z"
       node-id="115"
       target-height="41.700012"
       target-width="47.900024"
       target-x="972.3"
       target-y="484.3"
       id="path61"
       inkscape:connector-curvature="0"
       style="fill:#f0aa00;fill-rule:nonzero;stroke:none" />
    <path
       d="m 981.2,488.4 2.8,1.7 -0.7,0.6 -1.4,-0.2 -0.8,-1.3 z"
       node-id="117"
       target-height="2.3000183"
       target-width="2.9000244"
       target-x="981.1"
       target-y="488.4"
       id="path63"
       inkscape:connector-curvature="0"
       style="fill:#b8a25c;fill-rule:nonzero;stroke:none" />
    <path
       d="m 474.1,554.1 -0.5,-1.8 0.1,-1.8 0.7,-1.6 1,-1.4 1.4,-1.1 1.7,-0.7 1.7,-0.1 1.9,0.5 2.3,1.7 0.5,1.1 0.4,2 -0.3,2.1 -0.6,2.1 -1,1.8 -3.6,0.7 -1.8,-0.2 -2.5,-1.2 z"
       node-id="119"
       target-height="12"
       target-width="11.699982"
       target-x="473.6"
       target-y="545.6"
       id="path65"
       inkscape:connector-curvature="0"
       style="fill:#ffffff;fill-rule:nonzero;stroke:none" />
    <path
       d="m 674.2,554.3 1.2,-0.5 2.7,-0.2 1.9,0.5 1.6,1.1 0.8,0.9 0.6,1.2 0.5,3 -0.2,1.4 -1.7,2.4 -2.5,1.4 -1.5,0.3 -2.9,-0.7 -2.3,-1.7 -1,-2.7 0.2,-2.9 1.4,-2.5 z"
       node-id="121"
       target-height="12.200012"
       target-width="12.099976"
       target-x="671.4"
       target-y="553.6"
       id="path67"
       inkscape:connector-curvature="0"
       style="fill:#ffffff;fill-rule:nonzero;stroke:none" />
    <path
       d="m 1023.9,598.7 2.4,-1.4 -0.1,1.2 -1.2,0.7 z"
       node-id="123"
       target-height="1.9000244"
       target-width="2.4000244"
       target-x="1023.9"
       target-y="597.3"
       id="path69"
       inkscape:connector-curvature="0"
       style="fill:#756959;fill-rule:nonzero;stroke:none" />
    <path
       d="m 904.6,603.4 6.2,9.4 -4.9,-0.2 z"
       node-id="125"
       target-height="9.399963"
       target-width="6.200012"
       target-x="904.6"
       target-y="603.4"
       id="path71"
       inkscape:connector-curvature="0"
       style="fill:#d59b2c;fill-rule:nonzero;stroke:none" />
    <path
       d="m 406.1,611.8 9.4,-0.7 4.7,0.3 4.7,0.8 4.6,1.9 4.4,2.4 4.1,2.9 3.8,3.4 3.3,3.7 2.9,4.1 1.8,3.4 2.6,7.2 1.2,7.5 -0.3,7.7 -0.7,3.7 -1.1,3.7 -1.8,4.2 -2.3,3.9 -2.7,3.6 -3.2,3.2 -3.5,2.8 -3.8,2.5 -4.1,2 -4.2,1.5 -4.5,0.9 -4.3,0.4 -8.6,-0.2 -4.3,-0.7 -4.1,-1.2 -4,-1.8 -4.2,-2.4 -3.9,-2.8 -3.5,-3.5 -3.1,-3.8 -2.6,-4.1 -2.2,-4.4 -1.6,-4.7 -0.9,-4.7 -0.4,-4.8 0.1,-3.7 0.6,-3.5 0.9,-3.6 1.4,-3.5 1.9,-4 2.3,-3.7 2.7,-3.3 3.2,-3 3.4,-2.7 3.7,-2.3 4,-1.9 4,-1.6 z m -8.8,28.1 -6.6,10.6 -1.9,3.7 -0.2,1.1 0.9,2.1 0.9,0.7 1,0.1 1.1,-0.4 2.3,-2 4,-4.7 2.4,-3.9 1.9,-4.2 0.4,-1.4 -1.2,-4.3 -2.9,0.7 -1.2,0.7 z m 19.2,-0.7 -2.9,3.2 -2.5,3.6 -2.2,3.8 -2.1,5 0.5,2.5 1.6,1.9 1,0.4 1.1,-0.1 1.2,-0.7 5,-6.4 2.1,-3.6 2.3,-4.8 -0.3,-2.8 -1.3,-2.3 -1.7,-0.6 z m 18.7,0 -2.5,1.9 -2,2.3 -1.8,2.6 -4.3,9.4 0.2,1.8 0.8,1.2 1.2,0.8 h 1.6 l 3.2,-2.7 2,-2.4 3.3,-5.5 1.2,-2.9 0.9,-3.1 0.1,-1 -0.3,-1 -1.6,-1.4 -1,-0.2 z"
       node-id="127"
       target-height="77.70001"
       target-width="79.899994"
       target-x="373.7"
       target-y="611.1"
       id="path73"
       inkscape:connector-curvature="0"
       style="fill:#f88878;fill-rule:nonzero;stroke:none" />
    <path
       d="m 917.4,612.9 9.6,-0.8 9.7,-0.2 9.6,0.3 9.6,0.8 -9.9,0.8 -10,0.1 -10,-0.2 -10,-0.6 z"
       node-id="129"
       target-height="2"
       target-width="39.900024"
       target-x="916"
       target-y="611.9"
       id="path75"
       inkscape:connector-curvature="0"
       style="fill:#d7982b;fill-rule:nonzero;stroke:none" />
    <path
       d="m 712.5,623.7 7.4,-1.6 7.4,-0.1 5,0.7 4.7,1.3 4.7,1.9 4.4,2.4 4,2.9 3.7,3.4 4.6,5.8 3.3,6.7 1.4,3.9 0.9,4 0.4,4 v 4.1 l -0.4,4 -0.8,4.1 -1.2,3.9 -1.6,3.7 -2,3.6 -2.8,3.8 -3.3,3.4 -3.6,3 -4,2.6 -4.2,2.1 -4.5,1.6 -3.7,0.8 -7.5,0.6 -3.8,-0.3 -5,-0.9 -4.8,-1.4 -4.7,-2.1 -4.4,-2.6 -4,-3 -3.6,-3.6 -4.5,-6 -3.2,-6.9 -1.3,-4.1 -0.7,-4.1 -0.2,-4.1 0.2,-4.1 0.8,-4.1 1.1,-4 1.6,-3.9 1.9,-3.6 2.3,-3.5 2.7,-3.3 2.9,-2.9 3.3,-2.6 3.5,-2.3 3.7,-1.8 z m -11.6,37.1 -1,1.9 -0.6,2 -0.3,4.2 4.1,-0.1 0.9,-0.4 3.6,-3.4 4.8,-6 1.9,-3.3 0.3,-3 -0.4,-1.5 -0.8,-1.3 -1.6,-1 -1.1,-0.1 -3,2.5 -2.5,3 z m 25.8,-10.2 -4.7,5.4 -4.9,7.4 -0.2,3.1 1.7,4.5 2.3,-0.6 1.9,-1.2 3.1,-3.4 2.5,-3.9 1.9,-3.4 1.4,-3.7 0.2,-1.9 -0.5,-2 -2.3,-1.1 -1.6,0.2 z m 17.1,1.2 -5.2,7.6 -4,8.3 4.2,2.4 2.4,-1.5 2.1,-1.9 3.2,-4.7 2.7,-5 0.7,-1.7 0.4,-1.9 -0.1,-3.7 -4.6,0.6 z"
       node-id="131"
       target-height="78.29999"
       target-width="79.80005"
       target-x="684.6"
       target-y="622"
       id="path77"
       inkscape:connector-curvature="0"
       style="fill:#f98a78;fill-rule:nonzero;stroke:none" />
    <path
       d="m 397.3,639.9 0.9,-1.2 1.2,-0.7 2.9,-0.7 1.2,4.3 -0.4,1.4 -1.9,4.2 -2.4,3.9 -4,4.7 -2.3,2 -1.1,0.4 -1,-0.1 -0.9,-0.7 -0.7,-1 -0.2,-1.1 0.2,-1.1 1.9,-3.7 z"
       node-id="133"
       target-height="20.900024"
       target-width="14.899994"
       target-x="388.6"
       target-y="637.3"
       id="path79"
       inkscape:connector-curvature="0"
       style="fill:#df6757;fill-rule:nonzero;stroke:none" />
    <path
       d="m 416.5,639.2 1.8,-0.9 1.7,0.6 1.3,2.3 0.3,2.8 -2.3,4.8 -2.1,3.6 -5,6.4 -1.2,0.7 -1.1,0.1 -1,-0.4 -1.6,-1.9 -0.5,-2.5 2.1,-5 2.2,-3.8 2.5,-3.6 z"
       node-id="135"
       target-height="21.299988"
       target-width="14.800018"
       target-x="406.8"
       target-y="638.3"
       id="path81"
       inkscape:connector-curvature="0"
       style="fill:#e16758;fill-rule:nonzero;stroke:none" />
    <path
       d="m 435.2,639.2 1,-0.2 1,0.2 1.6,1.4 0.3,1 -0.1,1 -0.9,3.1 -2.7,5.7 -1.8,2.7 -4.3,4.6 -0.9,0.5 h -1.6 l -1.2,-0.8 -0.8,-1.2 -0.2,-1.8 4.3,-9.4 1.8,-2.6 2,-2.3 z"
       node-id="137"
       target-height="20.200012"
       target-width="14.5"
       target-x="424.6"
       target-y="639"
       id="path83"
       inkscape:connector-curvature="0"
       style="fill:#e76b5e;fill-rule:nonzero;stroke:none" />
    <path
       d="m 700.9,660.8 4.3,-6.5 2.5,-3 3,-2.5 2,0.5 1.5,1.9 0.4,1.5 -0.3,3 -1.9,3.3 -2.3,3.1 -5.2,5.6 -1.8,1.1 -4.1,0.1 0.3,-4.2 0.6,-2 z"
       node-id="139"
       target-height="20.100037"
       target-width="15.599976"
       target-x="699"
       target-y="648.8"
       id="path85"
       inkscape:connector-curvature="0"
       style="fill:#e16859;fill-rule:nonzero;stroke:none" />
    <path
       d="m 726.7,650.6 0.8,-0.6 1.6,-0.2 2.3,1.1 0.5,2 -0.2,1.9 -1.4,3.7 -1.9,3.4 -3.9,5.8 -1.7,1.5 -1.9,1.2 -2.3,0.6 -1.3,-3 -0.5,-3.1 0.3,-1.5 0.8,-1.5 4.1,-5.9 z"
       node-id="141"
       target-height="21.200012"
       target-width="15.100037"
       target-x="716.8"
       target-y="649.8"
       id="path87"
       inkscape:connector-curvature="0"
       style="fill:#e56659;fill-rule:nonzero;stroke:none" />
    <path
       d="m 743.8,651.8 1.8,-1.5 4.6,-0.6 0.1,3.7 -0.4,1.9 -4.9,9.2 -1.7,2.2 -2.1,1.9 -2.4,1.5 -4.2,-2.4 4,-8.3 z"
       node-id="143"
       target-height="20.399963"
       target-width="15.700012"
       target-x="734.6"
       target-y="649.7"
       id="path89"
       inkscape:connector-curvature="0"
       style="fill:#e46859;fill-rule:nonzero;stroke:none" />
    <path
       d="m 537.3,700.4 2.6,-4 3.1,-3.6 3.4,-3.2 3.9,-2.8 4,-2.5 8.9,-3.9 9,-2.7 17.1,0.9 4.5,0.9 2,0.8 1.8,1.4 v 6.5 l -4.2,3.2 -4.5,2.9 -4.8,2.6 -4.9,2.1 -5.1,1.8 -5.2,1.3 -5.3,1 -5.3,0.4 H 553 l -5.3,-0.5 -5.2,-1 z"
       node-id="145"
       target-height="25.799988"
       target-width="60.299988"
       target-x="537.3"
       target-y="677.7"
       id="path91"
       inkscape:connector-curvature="0"
       style="fill:#f47c6f;fill-rule:nonzero;stroke:none" />
    <path
       d="m 572.2,677.7 5.1,-0.9 8.8,-0.4 6.9,1 3.3,1 3.2,1.4 3,1.7 -4.9,6.7 v -6.5 l -1.8,-1.4 -2,-0.8 -4.5,-0.9 z"
       node-id="147"
       target-height="11.799988"
       target-width="30.299988"
       target-x="572.2"
       target-y="676.4"
       id="path93"
       inkscape:connector-curvature="0"
       style="fill:#d88380;fill-rule:nonzero;stroke:none" />
    <path
       d="m 477.5,1015.2 2.7,-1 2.7,-0.5 2.8,-0.2 4.1,0.5 4.1,1 4,1.6 8.5,4.5 4.5,3.1 17.2,13.6 -5.8,0.4 -5.6,0.8 -3.7,1 -3.6,1.3 -6.5,3.7 -11.6,9.2 -3.2,2 -2.4,1 -2.6,0.6 -2.7,0.1 -2.6,-0.4 -2.4,-1 -4,-3.3 -2.8,-4 -1.3,-3.4 -0.9,-3.7 -0.4,-3.7 v -3.7 l 0.4,-3.9 0.9,-3.9 2.3,-4.8 3.3,-4.1 2.1,-1.5 z"
       node-id="149"
       target-height="44.400024"
       target-width="62.099976"
       target-x="466"
       target-y="1013.5"
       id="path95"
       inkscape:connector-curvature="0"
       style="fill:#d9edfc;fill-rule:nonzero;stroke:none" />
  </g>
</svg>
