<?xml version="1.0" encoding="UTF-8" standalone="no"?>
<!-- Generator: Adobe Illustrator 23.1.0, SVG Export Plug-In . SVG Version: 6.00 Build 0)  -->

<svg
   version="1.1"
   id="图层_1"
   x="0px"
   y="0px"
   viewBox="0 0 480 120"
   style="enable-background:new 0 0 480 120;"
   xml:space="preserve"
   sodipodi:docname="20200424logo4.svg"
   inkscape:version="1.2.1 (9c6d41e410, 2022-07-14)"
   xmlns:inkscape="http://www.inkscape.org/namespaces/inkscape"
   xmlns:sodipodi="http://sodipodi.sourceforge.net/DTD/sodipodi-0.dtd"
   xmlns="http://www.w3.org/2000/svg"
   xmlns:svg="http://www.w3.org/2000/svg"><defs
   id="defs21" /><sodipodi:namedview
   id="namedview19"
   pagecolor="#ffffff"
   bordercolor="#000000"
   borderopacity="0.25"
   inkscape:showpageshadow="2"
   inkscape:pageopacity="0.0"
   inkscape:pagecheckerboard="0"
   inkscape:deskcolor="#d1d1d1"
   showgrid="false"
   inkscape:zoom="2"
   inkscape:cx="234.25"
   inkscape:cy="80"
   inkscape:window-width="1920"
   inkscape:window-height="1009"
   inkscape:window-x="-8"
   inkscape:window-y="-8"
   inkscape:window-maximized="1"
   inkscape:current-layer="图层_1" />
<style
   type="text/css"
   id="style2">
	.st0{fill:#333333;}
	.st1{fill:#E91E63;}
	.st2{fill:#2299FF;}
	.st4{fill:#ffffff;}
</style>

<g
   id="g1677"
   transform="translate(31.701463)"><g
     id="g804"
     transform="matrix(-0.10846339,0,0,0.10846339,157.2907,3.9771133)"><path
       d="M 656.384,599.8592 H 527.7696 c -5.7344,0 -10.24,-4.5056 -10.24,-10.24 0,-5.7344 4.5056,-10.24 10.24,-10.24 H 656.384 c 75.5712,0 137.0112,-55.7056 137.0112,-124.3136 v -10.4448 c 0,-37.6832 -20.6848,-72.9088 -55.0912,-94.208 -4.7104,-3.072 -6.3488,-9.216 -3.2768,-14.1312 3.072,-4.7104 9.216,-6.3488 14.1312,-3.2768 40.5504,25.1904 64.9216,66.9696 64.9216,111.8208 v 10.4448 c -0.2048,79.6672 -70.8608,144.5888 -157.696,144.5888 z"
       fill="#050505"
       p-id="2267"
       id="path2" /><path
       d="m 433.9712,986.3168 c -2.048,0 -4.096,-0.6144 -5.9392,-1.8432 -4.7104,-3.2768 -5.7344,-9.6256 -2.4576,-14.336 L 549.2736,795.4432 c 27.2384,-38.5024 21.0944,-90.7264 -14.5408,-121.856 l -125.952,-98.7136 c -40.7552,-36.2496 -51.6096,-107.7248 -23.552,-156.2624 48.9472,-84.992 122.6752,-214.016 126.976,-222.8224 2.048,-4.9152 7.3728,-7.5776 12.4928,-5.9392 5.3248,1.6384 8.3968,7.3728 6.5536,12.9024 -0.4096,1.4336 -1.8432,5.5296 -128.4096,226.0992 -22.9376,39.936 -13.9264,100.7616 19.2512,130.6624 l 125.952,98.7136 c 43.8272,37.888 51.4048,101.9904 18.0224,149.2992 L 442.368,982.016 c -2.048,2.8672 -5.12,4.3008 -8.3968,4.3008 z M 512.2048,195.9936 C 512,196.1984 512,196.608 512,196.608 c 0,-0.2048 0,-0.4096 0.2048,-0.6144 z"
       fill="#050505"
       p-id="2268"
       id="path4-5" /><path
       d="m 521.8304,426.8032 c -9.6256,0 -18.2272,-4.9152 -23.1424,-13.1072 -4.7104,-8.192 -4.9152,-18.0224 -0.2048,-26.4192 L 612.7616,190.8736 c 23.9616,-41.5744 14.9504,-94.4128 -21.2992,-125.952 -4.3008,-3.6864 -4.7104,-10.24 -1.024,-14.5408 3.6864,-4.3008 10.24,-4.7104 14.5408,-1.024 43.6224,37.888 54.272,101.7856 25.3952,151.7568 L 516.096,397.312 c -1.4336,2.6624 -0.4096,4.9152 0,5.7344 0.6144,0.8192 2.048,2.8672 5.12,2.8672 l 193.3312,-2.8672 c 5.5296,0 10.24,4.5056 10.4448,10.0352 0,5.7344 -4.5056,10.24 -10.0352,10.4448 z m 65.7408,330.1376 h -226.304 c -5.7344,0 -10.24,-4.5056 -10.24,-10.24 0,-5.7344 4.5056,-10.24 10.24,-10.24 h 226.304 c 18.0224,0 34.2016,-9.4208 43.008,-25.1904 8.8064,-15.7696 8.6016,-34.6112 -1.024,-50.176 l -0.2048,-0.2048 -37.4784,-65.1264 c -2.8672,-4.9152 -1.2288,-11.0592 3.6864,-13.9264 4.9152,-2.8672 11.0592,-1.2288 13.9264,3.6864 l 37.6832,64.9216 c 13.312,21.9136 13.9264,48.3328 1.4336,70.656 -12.6976,22.528 -35.4304,35.84 -61.0304,35.84 z"
       fill="#050505"
       p-id="2269"
       id="path6" /><path
       d="m 265.4208,255.3856 c -3.072,0 -5.9392,-1.2288 -7.9872,-3.8912 -3.4816,-4.5056 -2.6624,-10.8544 1.6384,-14.336 l 230.4,-182.272 6.3488,5.3248 c 12.0832,10.0352 27.2384,15.36 42.8032,15.36 20.48,0 39.5264,-9.216 52.224,-24.9856 3.4816,-4.5056 10.0352,-5.12 14.336,-1.6384 4.5056,3.4816 5.12,10.0352 1.6384,14.336 -16.5888,20.6848 -41.5744,32.768 -68.1984,32.768 -17.6128,0 -34.816,-5.3248 -49.152,-15.1552 L 271.7696,253.1328 c -1.8432,1.4336 -4.096,2.2528 -6.3488,2.2528 z"
       fill="#050505"
       p-id="2270"
       id="path8" /><path
       d="m 558.2848,131.2768 m -18.432,0 a 18.432,18.432 0 1 0 36.864,0 18.432,18.432 0 1 0 -36.864,0 z"
       fill="#050505"
       p-id="2271"
       id="path10" /></g><g
     id="g1637"
     transform="translate(-31.73463,4.5368266)"
     style="fill:#ff2a2a"><path
       d="m 250.5992,18.883796 v 10.020841 l 13.91668,-0.979168 q 0.125,0 0.16666,0 1.58334,0 1.58334,1.500001 0,1.479168 -1.58334,1.583335 l -14.08334,0.937501 v 16.729179 q 0,1.437501 -1.6875,1.437501 -0.89584,0 -1.375,-0.604167 -0.27084,-0.333334 -0.27084,-0.833334 V 32.175473 l -14.41668,0.958334 -0.22916,0.02083 q -0.79167,0.04167 -1.22917,-0.583334 -0.25,-0.333333 -0.25,-0.854167 0,-1.458335 1.54167,-1.562501 l 14.58334,-1.020834 V 19.90463 q -4.54167,1.312501 -8.54167,2.145835 -0.66667,0.125 -1.02083,0.125 -1.41667,0 -1.41667,-1.229168 0,-0.708333 0.70833,-1.083334 0.25,-0.125 1.875,-0.541667 9.25001,-2.312501 16.68752,-5.812504 0.41666,-0.1875 0.85416,-0.1875 1.125,0 1.52084,0.875 0.125,0.291667 0.125,0.708334 0,1.145835 -1.22917,1.687502 -1.97917,0.875 -6.22917,2.291668 z"
       style="font-size:42.6667px;font-family:'UD Digi Kyokasho NK-R';-inkscape-font-specification:'UD Digi Kyokasho NK-R';text-align:center;text-orientation:upright;text-anchor:middle;fill:#ff2a2a;stroke-width:0.1;stroke-linecap:round;stroke-linejoin:round"
       id="path1602" /><path
       d="m 284.91172,29.800471 v 3.208335 l 3.45834,-0.333333 q 0.10417,-0.02083 0.16667,-0.02083 0.8125,-0.04167 1.10416,0.625 0.10417,0.208334 0.10417,0.5 0,1.166668 -1.20833,1.270835 l -3.62501,0.333333 v 3.062503 l 3.62501,-0.312501 0.1875,-0.02083 q 0.72916,-0.0625 1.04166,0.604167 0.10417,0.25 0.10417,0.541667 0,1.166668 -1.1875,1.270834 l -3.77084,0.291667 v 3.60417 l 4.43751,-0.416667 q 0.10416,0 0.16666,0 1.25,0 1.25,1.229167 0,1.229168 -1.29166,1.333335 l -10.95834,0.916667 v 0.583334 q -0.0208,1.458334 -1.27084,1.458334 -1.33333,0 -1.375,-1.458334 l 0.14583,-15.583345 q -2.5,3.770836 -3.33333,3.770836 -0.29167,0 -0.5625,-0.25 -0.4375,-0.416667 -0.4375,-0.875001 0,-0.270833 0.14583,-0.541667 0.0833,-0.145833 1.3125,-1.791668 3.60417,-4.91667 6.16667,-12.125009 l -3.45833,0.458334 q -0.10417,1.979168 -0.3125,3.125002 -0.29167,1.458334 -1.4375,1.458334 -0.27084,0 -0.58334,-0.104166 -0.95833,-0.312501 -0.95833,-1.312501 0,-0.333334 0.25,-1.041668 0.5625,-1.645834 0.85417,-4.708337 0.125,-1.333334 1.14583,-1.333334 0.85417,0 1,1.312501 l 4.35417,-0.479167 q 0.64583,-2.229168 1.20833,-4.708337 0.35417,-1.562501 1.45834,-1.562501 1.47917,0 1.47917,1.375001 0,0.666667 -1.14584,4.562503 l 5.68751,-0.625 q 0.39583,-0.04167 0.625,-0.04167 1.95833,0 1.95833,1.437501 0,0.979168 -1.64583,3.958337 -0.85417,1.562501 -1.5625,1.562501 -0.91667,0 -0.91667,-0.854168 0,-0.354166 0.22917,-0.9375 0.58333,-1.583335 0.58333,-2.187502 0,-0.395833 -0.39583,-0.395833 -0.14584,0 -0.33334,0.02083 l -5.10417,0.645834 q -1.58333,4.333336 -3.58333,7.833339 l 3.27083,-0.395834 q 0.79167,-2.041668 1.1875,-3.854169 0.35417,-1.520835 1.41667,-1.520835 1.45833,0 1.45833,1.354168 0,0.937501 -1.41666,3.708336 l 4.10417,-0.479167 q 0.0417,0 0.14583,0 1.25,0 1.25,1.145834 0,1.229168 -1.1875,1.333334 z m -2.5625,0.25 -3.66667,0.354167 -0.0417,3.250002 3.70833,-0.375 z m 0,5.562504 -3.72917,0.354167 -0.0208,3.041669 3.75,-0.333334 z m 0,5.416671 -3.77083,0.291667 -0.0417,3.687502 3.8125,-0.354167 z m 21.02085,-13.333343 -8.41667,0.770833 v 2.145835 l 13.10417,-1.354167 q 0.14584,-0.02083 0.16667,-0.02083 0.5625,-0.04167 0.95834,0.375001 0.3125,0.333333 0.3125,0.833334 0,1.166667 -1.27084,1.291667 L 294.9534,32.94631 v 2.062502 l 12.87501,-1.187501 q 0.22916,-0.02083 0.45833,-0.02083 2.04167,0 2.04167,2.104168 0,1.854168 -0.47917,5.375004 -0.66666,4.79167 -1.72917,7.166672 -0.8125,1.791668 -2.54166,1.791668 -1.50001,0 -4.04167,-1.229168 -1,-0.479167 -1,-1.125 0,-1.062501 1.0625,-1.062501 0.25,0 0.75,0.145833 1.54166,0.458334 2.10417,0.458334 1,0 1.41666,-1.229168 0.54167,-1.604168 0.97917,-3.937503 0.52083,-2.875002 0.52083,-5.000003 0,-1.000001 -0.89583,-0.916668 l -11.54168,1.041668 q -0.1875,1.125001 -1.35416,1.125001 -1.3125,0 -1.3125,-1.354168 V 17.383795 q 0,-1.354168 1.3125,-1.354168 1.125,0 1.33333,1.000001 l 0.70834,-0.08333 q 1.625,-2.437502 2.54166,-4.41667 0.47917,-1.062501 1.35417,-1.062501 0.4375,0 0.83334,0.229167 0.60416,0.395833 0.60416,1.125 0,1.166668 -2.375,3.812503 l 5.8125,-0.645834 q 0.35417,-0.04167 0.54167,-0.04167 1.8125,0 1.8125,1.937501 0,0.145834 -0.0208,0.354167 l -0.6875,8.83334 q -0.10417,1.500001 -1.4375,1.500001 -1.0625,0 -1.22917,-0.875 z m 0.125,-2.312502 0.16667,-2.479169 -8.70834,0.812501 v 2.437502 z m 0.33333,-4.750004 0.0833,-1.354167 q 0.0208,-0.854168 -0.8125,-0.770834 l -8.14584,0.8125 v 2.270835 z m -10.54167,19.083348 q 1.0625,0 1.0625,1.604168 0,3.291669 -0.52083,5.395837 -0.35417,1.437501 -1.47917,1.437501 -0.27083,0 -0.60417,-0.125 -0.875,-0.3125 -0.875,-1.291668 0,-0.270833 0.20834,-1 0.875,-2.958336 1.0625,-4.875004 0.10416,-1.145834 1.14583,-1.145834 z m 3.25,-0.125 q 0.77084,0 1.375,1.708334 0.4375,1.208335 0.9375,3.41667 0.0833,0.375 0.0833,0.645833 0,0.937501 -0.83334,1.270835 -0.33333,0.125 -0.64583,0.125 -1.08333,0 -1.25,-1.416668 -0.10417,-0.875001 -0.625,-4.10417 -0.0625,-0.4375 -0.0625,-0.645834 0,-1 1.02083,-1 z m 3.45834,-0.916668 q 0.5625,0 1.10417,0.979168 0.85416,1.500001 1.47916,3.437502 0.1875,0.583334 0.1875,1.000001 0,0.625001 -0.625,0.937501 -0.41666,0.208333 -0.77083,0.208333 -0.91667,0 -1.1875,-1.208334 -0.54167,-2.354168 -1.10417,-3.85417 -0.14583,-0.375 -0.14583,-0.645833 0,-0.854168 1.0625,-0.854168 z m 3.41667,-0.791667 q 0.5625,0 1.14583,0.895834 1.85417,2.979169 1.85417,3.79167 0,1.291667 -1.29167,1.291667 -0.9375,0 -1.27083,-1.250001 -0.22917,-0.875 -1.08334,-2.958335 -0.25,-0.625001 -0.25,-0.937501 0,-0.833334 0.89584,-0.833334 z"
       style="font-size:42.6667px;font-family:'UD Digi Kyokasho NK-R';-inkscape-font-specification:'UD Digi Kyokasho NK-R';text-align:center;text-orientation:upright;text-anchor:middle;fill:#ff2a2a;stroke-width:0.1;stroke-linecap:round;stroke-linejoin:round"
       id="path1604" /></g><g
     id="g1633"
     transform="translate(-31.73463,-4.5368236)"><path
       d="m 187.02623,75.553682 q 0.5,0 1.14584,0.458334 2.58333,1.770835 3.91667,3.895836 0.375,0.583334 0.375,1.062501 0,0.562501 -0.4375,0.937501 -0.375,0.3125 -0.89584,0.3125 -0.58333,0 -1.14583,-0.895834 -1.375,-2.125002 -3.14584,-3.937503 -0.60416,-0.604167 -0.60416,-1.041667 0,-0.791668 0.79166,-0.791668 z m 3.66667,-2.583335 q 1.02084,0 3.39584,2.083335 1.97917,1.770835 1.97917,2.854169 0,0.666667 -0.45834,1.020834 -0.39583,0.291667 -0.8125,0.291667 -0.58333,0 -1.14583,-0.812501 -1.47917,-2.125001 -3.14584,-3.687503 -0.60416,-0.583333 -0.60416,-0.979167 0,-0.770834 0.79166,-0.770834 z m -19.02084,3.270836 q 5.79167,0 10.41667,1.604168 2.75,0.937501 2.75,2.645835 0,1.104168 -1.52083,1.770835 -1.45834,0.645834 -4.14584,2.104168 -1.125,0.604167 -1.64583,0.604167 -0.91667,0 -0.91667,-0.895834 0,-0.583334 0.70833,-1.062501 2.18751,-1.500001 2.97917,-1.958334 0.4375,-0.250001 0.4375,-0.437501 0,-0.1875 -0.60416,-0.375 -1.00001,-0.3125 -2.91667,-0.666667 -2.95834,-0.520834 -5.43751,-0.520834 -1.97917,0 -4.27083,0.333334 -0.66667,0.08333 -0.875,0.08333 -0.47917,0 -0.87501,-0.208333 -0.6875,-0.354167 -0.6875,-1.145835 0,-1.125 1.31251,-1.479167 1.52083,-0.395834 5.29167,-0.395834 z m -6.20834,18.645847 q 0.75,0 1.52083,1.229168 1.64584,2.687502 5.20834,3.666669 2.45833,0.666663 6.16667,0.666663 3.08334,0 6.29167,-0.499996 0.39584,-0.0625 0.58334,-0.0625 1.02083,0 1.4375,0.770836 0.16666,0.29166 0.16666,0.6875 0,1.41667 -1.5,1.72917 -2.41667,0.52083 -6.89584,0.52083 -7.97917,0 -11.5625,-3.04167 -1.70834,-1.458333 -2.47917,-3.312501 -0.27084,-0.645834 -0.27084,-1.020835 0,-0.791667 0.64584,-1.145834 0.33333,-0.1875 0.6875,-0.1875 z"
       style="font-size:42.6667px;font-family:'UD Digi Kyokasho NK-R';-inkscape-font-specification:'UD Digi Kyokasho NK-R';text-align:center;text-orientation:upright;text-anchor:middle;fill:#333333;stroke-width:0.1;stroke-linecap:round;stroke-linejoin:round"
       id="path1606" /><path
       d="m 221.13043,96.970365 q 7.9375,5.208335 13.72917,6.937505 1.95834,0.5625 1.95834,1.16667 0,0.33333 -0.75,0.58333 -2.1875,0.72917 -3.18751,0.72917 -1,0 -3.66666,-1.47917 -5.56251,-3.08333 -10.47918,-7.145838 v 9.333338 q 0,0.52084 -0.29167,0.875 -0.41666,0.5625 -1.20833,0.5625 -1.52083,0 -1.52083,-1.4375 v -8.458337 q -4.95834,4.125007 -11.25001,6.770837 -3.06251,1.29167 -3.93751,1.29167 -1.04166,0 -1.04166,-1.125 0,-0.5 0.4375,-0.83334 0.20833,-0.14583 1.58333,-0.64583 2.89584,-1.04167 6.95834,-3.52084 2.375,-1.45833 4.60417,-3.208331 l -11.77084,0.604167 h -0.1875 q -0.85417,0 -1.16667,-0.770834 -0.10417,-0.25 -0.10417,-0.541667 0,-1.250001 1.1875,-1.291668 l 14.68752,-0.729167 v -1.958335 q 0,-0.666667 0.47916,-1.041667 0.41667,-0.333334 1.04167,-0.333334 0.5625,0 1,0.3125 0.5,0.354167 0.5,1.020834 v 1.854169 l 14.89585,-0.708334 q 0.35416,-0.02083 0.66666,0.125 0.72917,0.354167 0.72917,1.166667 0,1.208335 -1.1875,1.270835 z m 2.14583,-15.875012 q 0.0417,-0.0625 0.0833,-0.166667 0.45834,-1.229167 1.50001,-1.229167 1.39583,0 1.47916,1.208334 l 8.27084,-0.479167 q 0.0208,0 0.10417,0 0,0 0.10417,0 1.25,0.02083 1.25,1.166668 0,1.1875 -1.33334,1.270834 l -9.33334,0.520834 q -1.60417,2.750002 -4.1875,4.625003 4.77084,1.166668 7.41667,1.937501 1.375,0.375001 1.375,1.395835 0,0.416667 -0.22916,0.770834 -0.35417,0.604167 -1.08334,0.604167 -0.47917,0 -2.33333,-0.604167 -2.58334,-0.833334 -5.83334,-1.687501 l -2.25,-0.625001 q -3.41667,1.791668 -9.39584,2.916669 -2.60417,0.5 -3.22917,0.5 -1.125,0 -1.125,-1.062501 0,-0.604167 0.625,-0.895834 0.29166,-0.125 1.375,-0.270833 4.79167,-0.604167 8.33334,-2.083335 -2.875,-0.729167 -4.93751,-1.145834 -2.29166,-0.458334 -2.29166,-1.270834 0,-0.645834 1.33333,-2.229169 l -8.72917,0.520834 q -0.10417,0 -0.20834,0 -1.16666,0 -1.16666,-1.062501 0,-1.166667 1.22916,-1.250001 l 10.72918,-0.625 q 0.9375,-1.375001 2.125,-3.416669 0.58333,-1.041668 1.39583,-1.041668 0.35417,0 0.70834,0.166667 0.875,0.375 0.875,1.104167 0,0.562501 -1.64584,2.979169 z m -1.25,2.458335 -9.58334,0.520834 q -0.41667,0.541667 -0.5625,0.708334 -0.45833,0.520834 -0.45833,0.770834 0,0.354167 1.04166,0.541667 2.25,0.416667 5.60417,1.166667 2.45834,-1.562501 3.95834,-3.708336 z m -3.5,-9.14584 13.18751,-0.8125 q 0.0417,0 0.29166,0 2.02084,0 2.02084,1.312501 0,1.416667 -2.47917,4.083336 -0.95833,1.041667 -1.5,1.041667 -0.29167,0 -0.625,-0.208333 -0.41667,-0.270834 -0.41667,-0.791667 0,-0.270834 0.25,-0.791668 0.875,-1.604167 0.875,-1.958334 0,-0.437501 -0.8125,-0.375001 l -24.72918,1.541668 q 0,0.291667 0,0.354167 0,2.125002 -0.375,2.937502 -0.41667,0.937501 -1.3125,0.937501 -1.54167,0 -1.54167,-1.354168 0,-0.3125 0.14583,-0.791667 0.75,-2.354168 0.77084,-4.22917 0.0208,-1.229167 0.97916,-1.229167 1.02084,0 1.1875,1.208334 l 10.97918,-0.687501 v -3.166669 q 0,-1.458334 1.5625,-1.458334 0.79167,0 1.25,0.541667 0.29167,0.375 0.29167,0.916667 z"
       style="font-size:42.6667px;font-family:'UD Digi Kyokasho NK-R';-inkscape-font-specification:'UD Digi Kyokasho NK-R';text-align:center;text-orientation:upright;text-anchor:middle;fill:#333333;stroke-width:0.1;stroke-linecap:round;stroke-linejoin:round"
       id="path1608" /><path
       d="m 260.58878,85.532857 q 4.18751,2.687502 8.37501,6.354171 1.20834,1.041667 1.33334,1.187501 0.625,0.645834 0.625,1.312501 0,0.541667 -0.4375,0.979167 -0.625,0.625001 -1.31251,0.625001 -0.5625,0 -1,-0.375001 -0.125,-0.08333 -0.79166,-0.75 -2.85417,-2.833336 -6.10417,-5.583338 l -1.58334,-1.333334 q -2.02083,4.583337 -7.0625,8.229173 -1.25001,0.895834 -1.75001,0.895834 -0.47916,0 -0.85416,-0.437501 -0.29167,-0.354166 -0.29167,-0.729167 0,-0.416667 0.33333,-0.791667 0.10417,-0.125 0.97917,-0.833334 4.29167,-3.395836 5.95834,-8.062506 0.6875,-1.875001 1.0625,-4.208336 l -10.60417,0.8125 0.97916,22.479179 q 0,0.64584 -0.4375,1.04167 -0.4375,0.39584 -1.14583,0.39584 -0.79167,0 -1.27084,-0.58334 -0.29166,-0.35417 -0.3125,-0.85417 l -1.0625,-24.54168 q 0,-0.541667 0.29167,-0.895834 0.45833,-0.541667 1.29167,-0.541667 0.91666,0 1.375,0.75 l 11.22917,-0.854167 q 0.20834,-2.604169 0.22917,-6.437505 0,-1.104167 0.45833,-1.479168 0.4375,-0.354167 1.20834,-0.354167 1.58333,0 1.58333,1.625002 0,4.062503 -0.1875,6.395838 l 10.60418,-0.812501 q 0.33333,-0.02083 0.4375,-0.02083 1.77083,0 2.5,1.208334 0.375,0.625 0.4375,1.541668 0.0625,0.708334 0.0625,3.895836 0,11.750009 -0.52083,18.479181 -0.14584,1.83333 -0.58334,2.70833 -0.72917,1.41667 -2.41667,1.41667 -2.375,0 -6.0625,-1.29167 -1.875,-0.64583 -1.875,-1.52083 0,-1.125 1.10417,-1.125 0.29166,0 0.89583,0.14583 2.41667,0.60417 4.1875,0.60417 0.95834,0 1.22917,-0.70834 0.1875,-0.52083 0.33333,-2.4375 0.54167,-6.583334 0.54167,-17.416675 0,-2.062502 -0.3125,-2.375002 -0.35417,-0.3125 -0.85417,-0.25 h -0.0417 l -9.95834,0.75 q -0.33334,2.250002 -0.81251,3.770837 z"
       style="font-size:42.6667px;font-family:'UD Digi Kyokasho NK-R';-inkscape-font-specification:'UD Digi Kyokasho NK-R';text-align:center;text-orientation:upright;text-anchor:middle;fill:#333333;stroke-width:0.1;stroke-linecap:round;stroke-linejoin:round"
       id="path1610" /><path
       d="m 307.42216,82.095354 v -7.520839 q 0,-1.791668 1.625,-1.791668 1.625,0 1.625,1.791668 v 7.250005 l 0.5,-0.02083 q 5.8125,-0.416667 6.27084,-0.458334 0.27083,-0.02083 0.45833,-0.02083 0.85417,0 1.3125,0.541667 0.29167,0.375 0.29167,0.854167 0,0.875001 -0.625,1.270835 -0.39583,0.25 -1.5,0.3125 -0.66667,0.04167 -3.0625,0.208333 -1.50001,0.125001 -3.68751,0.270834 -0.29166,6.187505 -1.39583,10.020841 -1.8125,6.187507 -6.85417,10.354177 -1.33334,1.10417 -1.95834,1.10417 -0.5,0 -0.79167,-0.35417 -0.27083,-0.33333 -0.27083,-0.72917 0,-0.45833 0.29167,-0.83333 0.16666,-0.20833 1.35417,-1.29167 4.41667,-3.979171 5.70833,-11.062509 0.52084,-2.791669 0.66667,-6.958339 l -0.9375,0.08333 -3.125,0.25 -3.16667,0.25 -3.14584,0.25 -0.79166,0.0625 v 7.000005 q 0,1.750002 -1.52084,1.750002 -1.54167,0 -1.54167,-1.750002 v -6.791671 q -2.20833,0.1875 -4.66667,0.354167 -2.04167,0.145833 -2.625,0.1875 -0.29167,0.02083 -0.47917,0.02083 -1.66666,0 -1.66666,-1.500001 0,-1.125001 1.02083,-1.437501 0.3125,-0.08333 1.125,-0.125 3,-0.166667 7.29167,-0.520834 v -6.791672 q 0,-1.750001 1.52084,-1.750001 1.54167,0 1.54167,1.750001 v 6.583339 l 0.9375,-0.08333 3.16666,-0.229167 3.16667,-0.229166 3.14584,-0.229167 z"
       style="font-size:42.6667px;font-family:'UD Digi Kyokasho NK-R';-inkscape-font-specification:'UD Digi Kyokasho NK-R';text-align:center;text-orientation:upright;text-anchor:middle;fill:#333333;stroke-width:0.1;stroke-linecap:round;stroke-linejoin:round"
       id="path1612" /><path
       d="m 339.443,86.262024 q -6.04167,4.22917 -13.31251,7.062505 -0.64583,0.25 -1.04166,0.25 -0.66667,0 -0.95834,-0.5625 -0.16666,-0.291667 -0.16666,-0.562501 0,-0.604167 0.60416,-0.979167 0.16667,-0.104167 2.25001,-1.041667 5.29167,-2.375002 10.47917,-6.291672 5.97917,-4.54167 10.08334,-10.437508 0.52083,-0.75 1.33333,-0.75 0.56251,0 1.10417,0.354167 0.625,0.416667 0.625,1.187501 0,0.645833 -0.89583,1.895834 -3.10417,4.333337 -7.70834,8.041673 0.77083,0.4375 0.77083,1.583335 v 17.875016 q 0,1.75 -1.58333,1.75 -1.58334,0 -1.58334,-1.75 z"
       style="font-size:42.6667px;font-family:'UD Digi Kyokasho NK-R';-inkscape-font-specification:'UD Digi Kyokasho NK-R';text-align:center;text-orientation:upright;text-anchor:middle;fill:#333333;stroke-width:0.1;stroke-linecap:round;stroke-linejoin:round"
       id="path1614" /><path
       d="M 366.06804,87.241191 V 104.2412 q 0,1.75001 -1.62501,1.75001 -1.625,0 -1.625,-1.75001 V 74.282848 q 0,-1.750001 1.625,-1.750001 1.62501,0 1.62501,1.750001 v 10.375008 q 7.8125,2.375002 11.47917,4.750003 1.79167,1.166668 1.79167,2.250002 0,0.604167 -0.45833,1.145834 -0.4375,0.500001 -1.06251,0.500001 -0.64583,0 -1.89583,-0.875001 -3.79167,-2.708335 -9.85417,-5.187504 z"
       style="font-size:42.6667px;font-family:'UD Digi Kyokasho NK-R';-inkscape-font-specification:'UD Digi Kyokasho NK-R';text-align:center;text-orientation:upright;text-anchor:middle;fill:#333333;stroke-width:0.1;stroke-linecap:round;stroke-linejoin:round"
       id="path1616" /></g></g></svg>
