<?xml version="1.0" encoding="UTF-8" standalone="no"?>
<svg
   xmlns:dc="http://purl.org/dc/elements/1.1/"
   xmlns:cc="http://creativecommons.org/ns#"
   xmlns:rdf="http://www.w3.org/1999/02/22-rdf-syntax-ns#"
   xmlns:svg="http://www.w3.org/2000/svg"
   xmlns="http://www.w3.org/2000/svg"
   xmlns:sodipodi="http://sodipodi.sourceforge.net/DTD/sodipodi-0.dtd"
   xmlns:inkscape="http://www.inkscape.org/namespaces/inkscape"
   t="1687655295928"
   class="icon"
   viewBox="0 0 1024 1024"
   version="1.1"
   p-id="15178"
   width="200"
   height="200"
   id="svg6"
   sodipodi:docname="mae.svg"
   inkscape:version="0.92.5 (2060ec1f9f, 2020-04-08)">
  <metadata
     id="metadata12">
    <rdf:RDF>
      <cc:Work
         rdf:about="">
        <dc:format>image/svg+xml</dc:format>
        <dc:type
           rdf:resource="http://purl.org/dc/dcmitype/StillImage" />
      </cc:Work>
    </rdf:RDF>
  </metadata>
  <defs
     id="defs10" />
  <sodipodi:namedview
     pagecolor="#ffffff"
     bordercolor="#666666"
     borderopacity="1"
     objecttolerance="10"
     gridtolerance="10"
     guidetolerance="10"
     inkscape:pageopacity="0"
     inkscape:pageshadow="2"
     inkscape:window-width="1920"
     inkscape:window-height="992"
     id="namedview8"
     showgrid="false"
     inkscape:zoom="0.1767767"
     inkscape:cx="-317.58743"
     inkscape:cy="327.15694"
     inkscape:window-x="0"
     inkscape:window-y="0"
     inkscape:window-maximized="1"
     inkscape:current-layer="svg6" />
  <g
     id="g824"
     transform="matrix(1.0019979,0,0,1.0019979,-0.84205326,-2.023273)"
     style="fill:#536c67">
    <path
       style="fill:#536c67;stroke-width:1.99591875"
       inkscape:connector-curvature="0"
       id="path2"
       p-id="15179"
       d="M 1018.7427,940.94854 564.27199,43.184292 563.47363,41.587556 C 552.49606,23.025512 532.33729,11.648775 510.78136,11.648775 c -21.55592,0 -41.7147,11.376737 -52.69225,29.938781 L 7.8098388,936.15834 l -0.798362,1.59673 c -4.9897958,11.97552 -11.5763289,34.92858 1.3971402,53.09144 4.191434,5.98776 15.368582,21.75549 38.521239,21.75549 h 2.993878 l 3.592642,-0.1996 29.539607,-10.3787 427.525797,-171.44946 448.48293,181.82816 4.39103,0.1996 c 15.76775,0.998 38.12206,-5.389 49.49886,-21.55589 10.5783,-14.7698 12.7738,-33.53144 5.7881,-50.09757 z M 957.86717,936.55752 522.95647,588.86848 V 77.713686 Z M 500.60219,73.721848 V 588.86848 L 66.489859,935.95875 Z m 0.19958,704.359732 -403.17558,161.869 414.15313,-331.12292 420.3405,336.11272 -411.35885,-166.8588 z" />
    <path
       style="fill:#536c67;stroke-width:1.99591875"
       inkscape:connector-curvature="0"
       id="path4"
       p-id="15180"
       d="m 706.58099,523.80152 c 1.99592,3.99184 5.98776,6.38695 10.17919,6.38695 1.59674,0 3.39306,-0.39918 4.7902,-1.19756 5.58857,-2.59469 7.98369,-9.38081 5.18939,-14.96938 L 692.60957,443.366 c -2.5947,-5.58858 -9.38082,-7.98368 -14.96939,-5.18938 -5.58858,2.59468 -7.98368,9.38081 -5.1894,14.96938 z m -132.92819,-274.838 74.04859,153.28655 c 1.99592,3.99184 5.98775,6.38694 10.17919,6.38694 1.59674,0 3.39306,-0.39918 4.7902,-1.19754 5.58857,-2.5947 7.98368,-9.38083 5.18939,-14.9694 L 593.81158,239.18351 c -2.59468,-5.58857 -9.38081,-7.98367 -14.96939,-5.18938 -5.58857,2.59468 -7.98367,9.38081 -5.18939,14.96939 z" />
  </g>
</svg>
