<?xml version="1.0" encoding="UTF-8" standalone="no"?>
<!-- Generator: Adobe Illustrator 23.1.0, SVG Export Plug-In . SVG Version: 6.00 Build 0)  -->

<svg
   version="1.1"
   id="图层_1"
   x="0px"
   y="0px"
   viewBox="0 0 480 120"
   style="enable-background:new 0 0 480 120;"
   xml:space="preserve"
   sodipodi:docname="logo (1).svg"
   inkscape:version="1.2.2 (732a01da63, 2022-12-09)"
   xmlns:inkscape="http://www.inkscape.org/namespaces/inkscape"
   xmlns:sodipodi="http://sodipodi.sourceforge.net/DTD/sodipodi-0.dtd"
   xmlns="http://www.w3.org/2000/svg"
   xmlns:svg="http://www.w3.org/2000/svg"><defs
   id="defs21" /><sodipodi:namedview
   id="namedview19"
   pagecolor="#ffffff"
   bordercolor="#000000"
   borderopacity="0.25"
   inkscape:showpageshadow="2"
   inkscape:pageopacity="0.0"
   inkscape:pagecheckerboard="0"
   inkscape:deskcolor="#d1d1d1"
   showgrid="false"
   inkscape:zoom="2"
   inkscape:cx="209.25"
   inkscape:cy="80.5"
   inkscape:window-width="1920"
   inkscape:window-height="1009"
   inkscape:window-x="-8"
   inkscape:window-y="-8"
   inkscape:window-maximized="1"
   inkscape:current-layer="图层_1" />
<style
   type="text/css"
   id="style2">
	.st0{fill:#333333;}
	.st1{fill:#E91E63;}
	.st2{fill:#2299FF;}
	.st4{fill:#ffffff;}
</style>

<path
   d="m 293.8309,50.81429 c 0,0 34.57617,0.32421 48.01563,1.84179 0,0 12.13867,1.51758 17.55859,0.65039 0,0 7.33984,-3.67968 11.48828,-5.09375 2.01563,-0.6875 3.51172,-1.95703 5.74414,-6.28711 0.66797,-1.29687 1.73438,-2.60156 4.98633,-3.03515 0,0 0.75781,4.55273 0,6.9375 0,0 11.49023,8.67187 8.7793,14.30664 0,0 -1.92383,3.17969 -3.79297,3.25195 -1.8418,0.0703 -6.61133,-0.65039 -7.3711,0 0,0 -7.45507,4.50977 -8.23828,11.05664 -0.44336,3.71485 -1.55273,12.29102 0.32422,14.95703 4.17383,5.92969 23.19531,20.26953 17.5586,23.08594 0,0 -1.73438,0.97461 -4.66016,-1.30078 0,0 -8.02149,-8.67188 -13.33203,-10.62305 0,0 -12.24805,-7.04492 -14.41602,-10.73047 0,0 -8.88867,1.95118 -7.04492,20.59375 0,0 1.61328,2.87891 2.92578,3.79297 0.92578,0.64453 3.63086,4.13672 -1.8418,4.11914 0,0 -6.5039,0.75782 -7.47851,-7.80468 0,0 -0.7793,-17.66797 -0.71484,-23.19532 L 310.7352,87.2303 301.62973,97.63655 c 0,0 -2.89063,5.95313 2.81836,10.51367 0.51172,0.41016 1.43359,1.43164 2.05859,1.625 1.65235,0.51172 6.50391,-0.43359 5.63672,4.00977 0,0 -1.07617,3.4707 -7.58789,1.19141 -4.27148,-1.49415 -8.67187,-5.09375 -13.33203,-12.24805 0,0 -2.16797,-2.92578 0,-7.1543 0,0 2.16797,-8.5625 -1.4082,-8.02148 0,0 -7.04493,7.58789 -16.04102,7.47851 0,0 -9.75586,-0.10742 -9.97266,15.28321 0,0 4.44336,4.66015 -1.84179,4.87695 0,0 -4.87696,0.43359 -4.22656,-6.61133 0,0 0.65039,-6.61133 3.46875,-15.82422 0,0 0.75781,-3.57617 4.44335,-5.85351 0,0 6.39454,-3.12696 7.69532,-8.28321 0,0 1.73437,-12.85351 7.91211,-19.78906 0,0 1.4082,-4.98633 -1.73438,-11.70508 0,0 -6.07031,-10.73047 -7.1543,-23.08593 0,0 -0.32421,-6.39454 -8.88867,-16.1503998 0,0 -3.74023,-6.61132 2.27539,-4.98632 0,0 13.33203,7.3163998 15.44532,21.4609298 0.008,0.004 4.61523,22.4961 12.63476,26.45118 z"
   fill="#333333"
   p-id="9139"
   id="path2-3"
   style="fill:#000000;stroke-width:0.195312" /><text
   xml:space="preserve"
   style="font-size:60px;font-family:'Microsoft JhengHei';-inkscape-font-specification:'Microsoft JhengHei';fill:#000000"
   x="184.56175"
   y="88.204613"
   id="text505-7"><tspan
     sodipodi:role="line"
     id="tspan503-9"
     x="184.56175"
     y="88.204613"
     style="font-style:normal;font-variant:normal;font-weight:bold;font-stretch:normal;font-family:'Microsoft YaHei';-inkscape-font-specification:'Microsoft YaHei Bold'">往</tspan></text><text
   xml:space="preserve"
   style="font-size:60px;font-family:'Microsoft JhengHei';-inkscape-font-specification:'Microsoft JhengHei';fill:#ff0000"
   x="153.35277"
   y="86.271019"
   id="text505-6"><tspan
     sodipodi:role="line"
     id="tspan503-1"
     x="153.35277"
     y="86.271019"
     style="font-style:normal;font-variant:normal;font-weight:bold;font-stretch:normal;font-family:'Microsoft YaHei';-inkscape-font-specification:'Microsoft YaHei Bold';fill:#ff0000">·</tspan></text><text
   xml:space="preserve"
   style="font-size:60px;font-family:'Microsoft JhengHei';-inkscape-font-specification:'Microsoft JhengHei';fill:#000000"
   x="89.245338"
   y="88.204613"
   id="text505"><tspan
     sodipodi:role="line"
     id="tspan503"
     x="89.245338"
     y="88.204613"
     style="font-style:normal;font-variant:normal;font-weight:bold;font-stretch:normal;font-family:'Microsoft YaHei';-inkscape-font-specification:'Microsoft YaHei Bold'">前</tspan></text><g
   id="g756"
   transform="translate(82.160364,-0.9542763)"><text
     xml:space="preserve"
     style="font-size:26.356px;font-family:'Microsoft JhengHei';-inkscape-font-specification:'Microsoft JhengHei';fill:#000000;stroke-width:0.439267"
     x="36.411888"
     y="29.220579"
     id="text559"><tspan
       sodipodi:role="line"
       id="tspan557"
       x="36.411888"
       y="29.220579"
       style="fill:#000000;stroke-width:0.439267">え</tspan></text><text
     xml:space="preserve"
     style="font-size:26.356px;font-family:'Microsoft JhengHei';-inkscape-font-specification:'Microsoft JhengHei';fill:#000000;stroke-width:0.439267"
     x="10.944527"
     y="29.37501"
     id="text559-7"><tspan
       sodipodi:role="line"
       id="tspan557-5"
       x="10.944527"
       y="29.37501"
       style="fill:#000000;stroke-width:0.439267">ま</tspan></text></g><text
   xml:space="preserve"
   style="font-size:22.8827px;font-family:'Microsoft JhengHei';-inkscape-font-specification:'Microsoft JhengHei';fill:#000000;stroke-width:0.381379"
   x="203.04927"
   y="29.29512"
   id="text563"><tspan
     sodipodi:role="line"
     id="tspan561"
     x="203.04927"
     y="29.29512"
     style="fill:#000000;stroke-width:0.381379">を</tspan></text><text
   xml:space="preserve"
   style="font-size:14.1445px;font-family:'Microsoft JhengHei';-inkscape-font-specification:'Microsoft JhengHei';fill:#000000;stroke-width:0.235742"
   x="96.51255"
   y="113.12026"
   id="text567"><tspan
     sodipodi:role="line"
     id="tspan565"
     x="96.51255"
     y="113.12026"
     style="fill:#000000;stroke-width:0.235742">ナビゲーションページ</tspan></text></svg>
