<?xml version="1.0" encoding="UTF-8" standalone="no"?>
<!-- Generator: Adobe Illustrator 23.1.0, SVG Export Plug-In . SVG Version: 6.00 Build 0)  -->

<svg
   version="1.1"
   id="图层_1"
   x="0px"
   y="0px"
   viewBox="0 0 480 120"
   style="enable-background:new 0 0 480 120;"
   xml:space="preserve"
   sodipodi:docname="maewo.svg"
   inkscape:version="1.2.2 (732a01da63, 2022-12-09)"
   xmlns:inkscape="http://www.inkscape.org/namespaces/inkscape"
   xmlns:sodipodi="http://sodipodi.sourceforge.net/DTD/sodipodi-0.dtd"
   xmlns="http://www.w3.org/2000/svg"
   xmlns:svg="http://www.w3.org/2000/svg"><defs
   id="defs21" /><sodipodi:namedview
   id="namedview19"
   pagecolor="#ffffff"
   bordercolor="#000000"
   borderopacity="0.25"
   inkscape:showpageshadow="2"
   inkscape:pageopacity="0.0"
   inkscape:pagecheckerboard="0"
   inkscape:deskcolor="#d1d1d1"
   showgrid="false"
   inkscape:zoom="1.4142136"
   inkscape:cx="189.85817"
   inkscape:cy="95.459415"
   inkscape:window-width="1920"
   inkscape:window-height="1009"
   inkscape:window-x="-8"
   inkscape:window-y="-8"
   inkscape:window-maximized="1"
   inkscape:current-layer="图层_1" />
<style
   type="text/css"
   id="style2">
	.st0{fill:#333333;}
	.st1{fill:#E91E63;}
	.st2{fill:#2299FF;}
	.st4{fill:#ffffff;}
</style>

<rect
   style="fill:#000000;stroke-width:0.834381"
   id="rect247"
   width="334.75232"
   height="120.20815"
   x="65.760933"
   y="7.5519085e-05"
   ry="18.5" /><path
   id="path2-3"
   style="fill:#ffffff;stroke-width:0.170936"
   d="M 105.52344 7.5976562 L 105.52344 11.447266 L 97.158203 11.716797 L 97.248047 13.982422 L 105.52344 13.685547 L 105.52344 16.529297 L 98.535156 16.773438 L 98.638672 19.013672 L 105.52344 18.769531 L 105.52344 21.380859 C 104.80277 21.277906 104.13844 21.226562 103.5293 21.226562 C 101.81341 21.226562 100.51259 21.634175 99.628906 22.449219 C 98.745227 23.255683 98.304687 24.173596 98.304688 25.203125 C 98.304688 26.284131 98.702115 27.210275 99.5 27.982422 C 100.29789 28.745989 101.43959 29.128906 102.92383 29.128906 C 104.46812 29.128906 105.63138 28.794194 106.41211 28.125 C 107.20142 27.455806 107.65214 26.173393 107.76367 24.277344 C 109.59109 24.835005 111.63739 25.915182 113.90234 27.519531 L 115.13672 25.550781 C 112.52 23.792002 110.09588 22.604046 107.86523 21.986328 L 107.86523 18.666016 L 114.37695 18.433594 L 114.27539 16.220703 L 107.86523 16.453125 L 107.86523 13.582031 L 115.76758 13.287109 L 115.63867 11.072266 L 107.86523 11.394531 L 107.86523 7.5976562 L 105.52344 7.5976562 z M 126.13867 7.9980469 L 125.86914 10.289062 C 129.10358 10.61508 132.36447 10.739324 135.65039 10.662109 L 135.72656 8.421875 C 132.25192 8.4819307 129.05567 8.3412228 126.13867 7.9980469 z M 263.14648 9.3691406 C 260.24601 9.5238972 262.75195 13.955078 262.75195 13.955078 C 270.24752 22.493348 270.53125 28.089844 270.53125 28.089844 C 271.47995 38.903268 276.79297 48.294922 276.79297 48.294922 C 279.54334 54.175131 278.31055 58.539062 278.31055 58.539062 C 272.90382 64.609014 271.38477 75.857422 271.38477 75.857422 C 270.24633 80.370141 264.65039 83.107422 264.65039 83.107422 C 261.42482 85.100536 260.76172 88.230469 260.76172 88.230469 C 258.29511 96.293529 257.72656 102.08008 257.72656 102.08008 C 257.15733 108.24575 261.42578 107.86523 261.42578 107.86523 C 266.92651 107.67548 263.03711 103.59766 263.03711 103.59766 C 263.22685 90.127886 271.76562 90.220703 271.76562 90.220703 C 279.63895 90.316431 285.80469 83.675781 285.80469 83.675781 C 288.93453 83.202284 287.03711 90.697266 287.03711 90.697266 C 285.13972 94.398036 287.03711 96.958984 287.03711 96.958984 C 291.11566 103.22038 294.9667 106.37007 298.70508 107.67773 C 304.40409 109.67255 305.3457 106.63477 305.3457 106.63477 C 306.10466 102.74597 301.85824 103.57286 300.41211 103.125 C 299.86512 102.95578 299.05919 102.06209 298.61133 101.70312 C 293.61486 97.711773 296.14453 92.501953 296.14453 92.501953 L 304.11328 83.394531 L 331.75586 83.488281 C 331.69945 88.325784 332.38281 103.78906 332.38281 103.78906 C 333.23578 111.28292 338.92773 110.61914 338.92773 110.61914 C 343.71738 110.63453 341.34929 107.57776 340.53906 107.01367 C 339.39036 106.21369 337.97852 103.69531 337.97852 103.69531 C 336.36488 87.379453 344.14453 85.671875 344.14453 85.671875 C 346.04192 88.897446 356.76172 95.0625 356.76172 95.0625 C 361.40947 96.770148 368.42969 104.35938 368.42969 104.35938 C 370.9903 106.35078 372.50781 105.49805 372.50781 105.49805 C 377.44103 103.03315 360.79353 90.482598 357.14062 85.292969 C 355.49793 82.959693 356.4694 75.45434 356.85742 72.203125 C 357.54288 66.473344 364.06641 62.525391 364.06641 62.525391 C 364.73136 61.956173 368.90565 62.586921 370.51758 62.525391 C 372.15344 62.462149 373.83789 59.679688 373.83789 59.679688 C 376.21048 54.74817 366.1543 47.158203 366.1543 47.158203 C 366.81753 45.071067 366.1543 41.087891 366.1543 41.087891 C 363.30821 41.467366 362.37562 42.609128 361.79102 43.744141 C 359.83722 47.533801 358.52774 48.644397 356.76367 49.246094 C 353.13298 50.48368 346.70898 53.705078 346.70898 53.705078 C 341.96551 54.464037 331.3418 53.134766 331.3418 53.134766 C 319.57966 51.806588 289.31836 51.523438 289.31836 51.523438 C 282.29972 48.061976 278.26677 28.376547 278.25977 28.373047 C 276.41023 15.993839 264.74219 9.5898438 264.74219 9.5898438 C 264.08408 9.4120701 263.56084 9.3470325 263.14648 9.3691406 z M 213.13867 10.949219 C 212.79603 11.932456 212.40859 12.884947 211.97656 13.808594 C 210.59109 13.83094 208.85946 13.83094 206.78125 13.808594 L 206.95898 15.775391 C 207.62938 15.790288 208.99723 15.798828 211.06055 15.798828 C 209.87619 18.063254 208.42807 20.074123 206.71484 21.832031 L 208.13281 23.117188 C 209.85348 21.225198 211.59365 20.279297 213.35156 20.279297 C 214.22307 20.279297 214.6582 20.565115 214.6582 21.138672 C 214.6582 21.228057 214.64735 21.331991 214.625 21.451172 C 210.59521 23.231426 208.58008 25.075538 208.58008 26.982422 C 208.58008 27.861376 208.99777 28.584283 209.83203 29.150391 C 210.67374 29.709047 212.30802 29.988281 214.73633 29.988281 C 216.7326 29.988281 218.77801 29.808714 220.87109 29.451172 L 220.69141 27.507812 C 218.66534 27.872803 216.58738 28.054687 214.45703 28.054688 C 213.22053 28.054688 212.27036 27.972467 211.60742 27.808594 C 210.95193 27.637272 210.625 27.31461 210.625 26.837891 C 210.625 26.4729 210.9756 25.988114 211.67578 25.384766 C 212.38342 24.781414 213.36615 24.186111 214.625 23.597656 L 214.625 26.478516 L 216.61328 26.478516 L 216.61328 22.748047 C 217.83488 22.263876 219.89539 21.679426 222.79297 20.994141 L 222.02148 19.183594 C 220.14442 19.563479 218.33481 20.050584 216.5918 20.646484 C 216.34599 19.149284 215.41095 18.400391 213.78711 18.400391 C 213.07947 18.400391 212.33056 18.547388 211.54102 18.837891 C 211.86131 18.353719 212.45665 17.306198 213.32812 15.697266 C 216.47151 15.503597 218.79613 15.291459 220.30078 15.060547 L 219.98828 13.09375 C 218.87841 13.294867 216.97149 13.485295 214.26758 13.664062 C 214.37186 13.418255 214.64255 12.688759 215.08203 11.474609 L 213.13867 10.949219 z M 135.80469 12.978516 C 131.43776 13.939409 127.36986 14.492822 123.60352 14.638672 L 124.18359 16.927734 C 126.71452 16.696092 129.54627 16.320218 132.67773 15.796875 C 129.30604 19.099945 126.002 22.963653 122.76758 27.390625 L 124.55664 29.076172 C 126.17815 26.605303 127.56325 24.825912 128.71289 23.736328 C 129.86253 22.646744 131.11204 22.101562 132.45898 22.101562 C 132.5791 22.101562 132.70648 22.174464 132.84375 22.320312 C 132.9896 22.457583 133.0625 22.586919 133.0625 22.707031 L 133.0625 25.576172 C 133.0625 26.416953 133.3294 27.107934 133.86133 27.648438 C 134.39325 28.188939 135.67057 28.458984 137.69531 28.458984 C 139.08518 28.458984 140.5318 28.318277 142.0332 28.035156 L 141.68555 25.705078 C 140.38148 25.988199 139.00773 26.130859 137.56641 26.130859 C 136.65699 26.130859 136.07888 26.079516 135.83008 25.976562 C 135.58985 25.873611 135.46875 25.663142 135.46875 25.345703 L 135.46875 22.384766 C 135.46875 20.668884 134.76638 19.810547 133.35938 19.810547 C 132.78455 19.810547 132.20449 19.915188 131.62109 20.121094 C 133.17397 18.31942 134.99335 16.532981 137.07812 14.765625 L 135.80469 12.978516 z M 103.77344 23.439453 C 104.35684 23.439453 104.90202 23.509215 105.4082 23.646484 C 105.4511 23.989661 105.42445 24.516424 105.33008 25.228516 C 105.24428 25.932027 105.03891 26.390983 104.71289 26.605469 C 104.38687 26.819954 103.86011 26.927734 103.13086 26.927734 C 101.44071 26.927734 100.5957 26.360997 100.5957 25.228516 C 100.5957 24.035977 101.65432 23.439453 103.77344 23.439453 z M 108.69922 37.960938 L 99.910156 40.363281 C 100.84766 41.749994 101.75586 43.156261 102.63477 44.582031 L 90.183594 44.582031 L 90.183594 51.496094 L 148.25 51.496094 L 148.25 44.582031 L 135.1543 44.582031 C 136.38476 43.175793 137.56641 41.769525 138.69922 40.363281 L 129.14844 37.960938 C 127.78125 40.187483 126.3457 42.394543 124.8418 44.582031 L 112.94727 44.582031 C 111.61914 42.433606 110.20312 40.226545 108.69922 37.960938 z M 199.5625 38.019531 C 195.65625 43.058569 191.35933 47.492207 186.67188 51.320312 C 187.88277 54.757797 188.83984 57.68751 189.54297 60.109375 C 195.91011 54.484405 201.59376 48.546845 206.59375 42.296875 L 199.5625 38.019531 z M 224.75781 38.078125 L 217.14062 40.832031 C 218.72265 43.546864 220.2266 46.300796 221.65234 49.09375 L 205.53906 49.09375 L 205.53906 56.359375 L 200.61719 53.019531 C 195.85157 59.972621 190.75386 65.968779 185.32422 71.007812 C 186.06641 73.507802 186.82813 76.613297 187.60938 80.324219 C 189.24996 78.917974 190.92969 77.345693 192.64844 75.607422 L 192.64844 95.558594 L 200.73438 95.558594 L 200.73438 66.496094 C 202.92183 63.781261 205.16797 60.832012 207.47266 57.648438 L 205.97852 56.652344 L 219.48438 56.652344 L 219.48438 67.023438 L 207.00391 67.023438 L 207.00391 74.582031 L 219.48438 74.582031 L 219.48438 85.890625 L 203.19531 85.890625 L 203.19531 93.449219 L 243.625 93.449219 L 243.625 85.890625 L 227.92188 85.890625 L 227.92188 74.582031 L 240.22656 74.582031 L 240.22656 67.023438 L 227.92188 67.023438 L 227.92188 56.652344 L 242.10156 56.652344 L 242.10156 49.09375 L 226.33984 49.09375 L 230.44141 47.511719 C 229.30859 45.441416 227.41406 42.296855 224.75781 38.078125 z M 137.11719 54.015625 L 137.11719 83.898438 C 137.11719 86.359358 135.98437 87.589844 133.71875 87.589844 C 131.88281 87.589844 129.1875 87.511719 125.63281 87.355469 C 126.41406 90.597638 126.98047 93.351575 127.33203 95.617188 C 132.68359 95.617188 136.39458 95.470703 138.46484 95.177734 C 140.53515 94.904302 142.14649 94.03515 143.29883 92.570312 C 144.45117 91.10548 145.02734 89.05467 145.02734 86.417969 L 145.02734 54.015625 L 137.11719 54.015625 z M 93.523438 54.71875 L 93.523438 95.558594 L 101.49219 95.558594 L 101.49219 82.960938 L 113.38672 82.960938 L 113.38672 84.835938 C 113.38672 86.984358 112.42969 88.058594 110.51562 88.058594 C 109.9688 88.058594 108.21088 87.980469 105.24219 87.824219 C 105.71094 89.660144 106.25781 92.257831 106.88281 95.617188 C 109.89062 95.597656 112.46875 95.5 114.61719 95.324219 C 116.76562 95.167969 118.42578 94.416009 119.59766 93.068359 C 120.76953 91.720714 121.35547 89.777331 121.35547 87.238281 L 121.35547 54.71875 L 93.523438 54.71875 z M 125.51562 55.714844 L 125.51562 83.605469 L 132.83984 83.605469 L 132.83984 55.714844 L 125.51562 55.714844 z M 101.49219 61.867188 L 113.38672 61.867188 L 113.38672 66.085938 L 101.49219 66.085938 L 101.49219 61.867188 z M 101.49219 72.414062 L 113.38672 72.414062 L 113.38672 76.632812 L 101.49219 76.632812 L 101.49219 72.414062 z M 233.53125 101.53711 L 232.83984 102.21484 C 233.50287 102.73974 234.05282 103.28844 234.49023 103.85938 L 235.21484 103.18945 C 234.62549 102.48499 234.06535 101.93308 233.53125 101.53711 z M 136.39844 101.82031 L 135.54883 102.2832 C 136.11976 102.95083 136.54977 103.57611 136.83984 104.15625 L 137.68945 103.69922 C 137.30269 102.93951 136.87268 102.31298 136.39844 101.82031 z M 122.42578 101.89062 L 121.63086 102.40234 C 122.18338 103.04695 122.6198 103.67599 122.9375 104.29297 L 123.75195 103.74219 C 123.33296 102.99629 122.89082 102.37868 122.42578 101.89062 z M 103.20508 102.07617 L 103.20508 105.25391 L 98.142578 105.25391 L 98.142578 106.44141 L 103.23242 106.44141 C 103.26926 108.191 103.0281 109.4409 102.50781 110.19141 C 101.98752 110.93731 101.25764 111.59829 100.31836 112.17383 L 101.20898 113.14844 C 102.48899 112.29203 103.35542 111.41347 103.80664 110.51562 C 104.26247 109.61323 104.49023 108.4743 104.49023 107.09766 C 104.49023 106.89046 104.48577 106.67162 104.47656 106.44141 L 109.1582 106.44141 L 109.1582 105.25391 L 104.49023 105.25391 L 104.49023 102.07617 L 103.20508 102.07617 z M 129.25586 102.16016 C 128.49154 104.7109 127.41715 106.75192 126.03125 108.28516 L 127.06641 109.04492 C 127.909 108.06881 128.59871 107.05118 129.13281 105.99219 L 132.52344 105.99219 C 132.30243 108.65344 131.04365 110.89865 128.74609 112.72656 L 129.76758 113.54102 C 132.19866 111.57036 133.54294 109.05401 133.80078 105.99219 L 136.42578 105.99219 L 136.42578 104.83203 L 129.66992 104.83203 C 130.03827 103.85131 130.29156 103.07359 130.42969 102.49805 L 129.25586 102.16016 z M 134.92578 102.41602 L 134.04883 102.84961 C 134.52768 103.40213 134.93537 103.97315 135.27148 104.5625 L 136.16211 104.15625 C 135.77995 103.47021 135.3678 102.89026 134.92578 102.41602 z M 157.00586 102.45703 L 156.25977 103.51367 C 157.3095 104.0754 158.16706 104.64642 158.83008 105.22656 L 159.625 104.18359 C 158.8791 103.56201 158.005 102.98653 157.00586 102.45703 z M 227.72852 102.45703 L 226.98242 103.51367 C 228.03221 104.0754 228.88976 104.64642 229.55273 105.22656 L 230.3457 104.18359 C 229.5998 103.56201 228.7276 102.98653 227.72852 102.45703 z M 205.85547 102.58008 C 205.49173 102.58008 205.16507 102.71663 204.875 102.98828 C 204.58493 103.25533 204.43945 103.58519 204.43945 103.97656 C 204.43945 104.38635 204.57475 104.73406 204.8418 105.01953 C 205.11345 105.3004 205.47581 105.43945 205.93164 105.43945 C 206.29538 105.43945 206.61311 105.3004 206.88477 105.01953 C 207.16103 104.73867 207.29883 104.39988 207.29883 104.00391 C 207.29883 103.58491 207.15531 103.24487 206.86523 102.98242 C 206.57977 102.71537 206.24223 102.58008 205.85547 102.58008 z M 232.43945 102.5957 L 231.74805 103.24414 C 232.53078 103.9486 233.08841 104.50623 233.41992 104.91602 L 234.13867 104.25195 C 233.51248 103.48764 232.94593 102.93642 232.43945 102.5957 z M 121.21094 102.71289 L 120.41602 103.24414 C 120.85343 103.75522 121.28218 104.36962 121.70117 105.08789 L 122.52148 104.57617 C 122.18537 103.91315 121.74964 103.29304 121.21094 102.71289 z M 114.23438 102.72656 L 114.23438 111.04102 C 114.23438 111.43699 114.37985 111.76685 114.66992 112.0293 C 114.95999 112.28714 115.30004 112.41602 115.69141 112.41602 L 121.99805 112.41602 L 121.99805 111.19336 L 115.94727 111.19336 C 115.8736 111.19336 115.79131 111.15445 115.69922 111.07617 C 115.61174 110.99329 115.56836 110.91547 115.56836 110.8418 L 115.56836 107.5332 C 117.7462 107.30759 119.84714 106.84439 121.87305 106.14453 L 121.22461 105.07422 C 119.5164 105.66818 117.6311 106.09247 115.56836 106.3457 L 115.56836 102.72656 L 114.23438 102.72656 z M 184.71484 102.80859 L 183.90039 103.81055 C 184.70154 104.21573 185.64706 104.88117 186.73828 105.80664 L 187.58789 104.79102 C 186.75451 104.04512 185.79686 103.38413 184.71484 102.80859 z M 205.87695 103.25781 C 206.06573 103.25781 206.23673 103.32671 206.38867 103.46484 C 206.54061 103.59837 206.61523 103.77955 206.61523 104.00977 C 206.61523 104.21696 206.54061 104.39563 206.38867 104.54297 C 206.23673 104.6857 206.0568 104.75586 205.84961 104.75586 C 205.65162 104.75586 205.48062 104.68696 205.33789 104.54883 C 205.19516 104.40609 205.125 104.23063 205.125 104.02344 C 205.125 103.80703 205.19962 103.62585 205.35156 103.47852 C 205.50811 103.33118 205.68357 103.25781 205.87695 103.25781 z M 201.56055 104.33594 C 201.23824 104.33594 200.94158 104.4782 200.66992 104.76367 C 199.0538 106.51792 197.8186 107.72439 196.9668 108.38281 L 197.87305 109.38477 C 198.886 108.52376 200.07713 107.3396 201.44922 105.83398 C 201.47224 105.80636 201.5099 105.79297 201.56055 105.79297 C 201.62961 105.79297 201.67745 105.81082 201.70508 105.84766 C 202.99889 107.31178 204.93851 109.03833 207.52148 111.02734 L 208.38477 110.00586 C 205.79714 108.05823 203.83079 106.31072 202.48633 104.76367 C 202.2423 104.4782 201.9335 104.33594 201.56055 104.33594 z M 192.35352 105.08789 C 191.4879 106.89279 190.40459 108.2326 189.10156 109.10742 C 187.79854 109.98224 185.94442 110.59092 183.54102 110.93164 L 184.03906 112.1875 C 186.99964 111.67182 189.12611 110.85964 190.41992 109.75 C 191.71834 108.64036 192.73596 107.29729 193.47266 105.72266 L 192.35352 105.08789 z M 155.58984 105.34375 L 154.94141 106.42773 C 156.22136 107.08155 157.13247 107.65262 157.67578 108.14062 L 158.42188 107.04883 C 157.67137 106.41343 156.72711 105.84562 155.58984 105.34375 z M 226.3125 105.34375 L 225.66406 106.42773 C 226.94406 107.08155 227.85513 107.65262 228.39844 108.14062 L 229.14453 107.04883 C 228.39403 106.41343 227.44977 105.84562 226.3125 105.34375 z M 164.0918 105.68164 C 162.42503 108.63301 159.67204 110.65487 155.83203 111.74609 L 156.55664 112.93359 C 160.59463 111.63062 163.4574 109.45306 165.14258 106.40039 L 164.0918 105.68164 z M 234.81445 105.68164 C 233.14769 108.63301 230.39464 110.65487 226.55469 111.74609 L 227.2793 112.93359 C 231.31724 111.63062 234.1801 109.45306 235.86523 106.40039 L 234.81445 105.68164 z M 171.25391 106.11719 L 171.25391 107.30469 L 175.69531 107.30469 L 175.69531 108.76172 L 171.52344 108.76172 L 171.52344 109.96484 L 175.69531 109.96484 L 175.69531 111.58008 L 171.25391 111.58008 L 171.25391 112.74023 L 175.69531 112.74023 L 175.69531 113.33398 L 176.9668 113.33398 L 176.9668 106.11719 L 171.25391 106.11719 z M 140.88672 107.03516 L 140.88672 108.28516 L 151.28125 108.28516 L 151.28125 107.03516 L 140.88672 107.03516 z M 211.60938 107.03516 L 211.60938 108.28516 L 222.00391 108.28516 L 222.00391 107.03516 L 211.60938 107.03516 z " /><text
   xml:space="preserve"
   style="font-size:60px;font-family:'Microsoft JhengHei';-inkscape-font-specification:'Microsoft JhengHei';fill:#ff0000"
   x="153.35277"
   y="86.271019"
   id="text505-6"><tspan
     sodipodi:role="line"
     id="tspan503-1"
     x="153.35277"
     y="86.271019"
     style="font-style:normal;font-variant:normal;font-weight:bold;font-stretch:normal;font-family:'Microsoft YaHei';-inkscape-font-specification:'Microsoft YaHei Bold';fill:#ff0000">·</tspan></text></svg>
