<?xml version="1.0" encoding="UTF-8" standalone="no"?>
<!-- Generator: Adobe Illustrator 23.1.0, SVG Export Plug-In . SVG Version: 6.00 Build 0)  -->

<svg
   version="1.1"
   id="图层_1"
   x="0px"
   y="0px"
   viewBox="0 0 480 120"
   style="enable-background:new 0 0 480 120;"
   xml:space="preserve"
   sodipodi:docname="maewo.svg"
   inkscape:version="1.2.2 (732a01da63, 2022-12-09)"
   xmlns:inkscape="http://www.inkscape.org/namespaces/inkscape"
   xmlns:sodipodi="http://sodipodi.sourceforge.net/DTD/sodipodi-0.dtd"
   xmlns="http://www.w3.org/2000/svg"
   xmlns:svg="http://www.w3.org/2000/svg"><defs
   id="defs21" /><sodipodi:namedview
   id="namedview19"
   pagecolor="#ffffff"
   bordercolor="#000000"
   borderopacity="0.25"
   inkscape:showpageshadow="2"
   inkscape:pageopacity="0.0"
   inkscape:pagecheckerboard="0"
   inkscape:deskcolor="#d1d1d1"
   showgrid="false"
   inkscape:zoom="1.4142136"
   inkscape:cx="104.29825"
   inkscape:cy="168.99852"
   inkscape:window-width="1920"
   inkscape:window-height="1009"
   inkscape:window-x="-8"
   inkscape:window-y="-8"
   inkscape:window-maximized="1"
   inkscape:current-layer="图层_1" />
<style
   type="text/css"
   id="style2">
	.st0{fill:#333333;}
	.st1{fill:#E91E63;}
	.st2{fill:#2299FF;}
	.st4{fill:#ffffff;}
</style>

<path
   d="m 289.31827,51.523114 c 0,0 30.26089,0.283747 42.02304,1.611926 0,0 10.6237,1.328178 15.36718,0.569218 0,0 6.42379,-3.220437 10.05449,-4.458024 1.76407,-0.601697 3.07344,-1.712783 5.02724,-5.502447 0.5846,-1.135014 1.51792,-2.276871 4.36401,-2.656347 0,0 0.66323,3.984526 0,6.071664 0,0 10.05619,7.589576 7.6836,12.521098 0,0 -1.68373,2.782848 -3.31959,2.84609 -1.61193,0.06153 -5.7862,-0.569218 -6.45115,0 0,0 -6.52464,3.946927 -7.2101,9.676714 -0.38802,3.251218 -1.35894,10.757038 0.28376,13.090316 3.65291,5.189634 20.30041,17.739788 15.36719,20.204688 0,0 -1.51792,0.85298 -4.07854,-1.13843 0,0 -7.02037,-7.589586 -11.66813,-9.297236 0,0 -10.71943,-6.165679 -12.61682,-9.391253 0,0 -7.77932,1.707663 -6.16568,18.023539 0,0 1.41193,2.51961 2.56063,3.31959 0.81023,0.56409 3.17771,3.62044 -1.61194,3.60505 0,0 -5.69218,0.66324 -6.54515,-6.83062 0,0 -0.68204,-15.462909 -0.62563,-20.300417 l -27.64385,-0.09401 -7.96906,9.107491 c 0,0 -2.52986,5.21015 2.46661,9.201506 0.44786,0.35897 1.25468,1.25297 1.80167,1.42219 1.44613,0.44786 5.69219,-0.37947 4.93323,3.50933 0,0 -0.94186,3.03754 -6.64088,1.04272 -3.73838,-1.30767 -7.58958,-4.45802 -11.66813,-10.719426 0,0 -1.89739,-2.56063 0,-6.261404 0,0 1.8974,-7.493856 -1.23245,-7.020358 0,0 -6.16568,6.640882 -14.03901,6.545154 0,0 -8.53828,-0.09401 -8.72802,13.375774 0,0 3.8888,4.07854 -1.61193,4.26829 0,0 -4.26829,0.37947 -3.69906,-5.78621 0,0 0.56922,-5.786196 3.03583,-13.849264 0,0 0.66323,-3.129846 3.8888,-5.122962 0,0 5.59646,-2.736699 6.7349,-7.249423 0,0 1.51791,-11.249325 6.92464,-17.319283 0,0 1.23245,-4.364011 -1.51792,-10.244226 0,0 -5.31271,-9.391252 -6.26141,-20.204687 0,0 -0.28375,-5.596469 -7.77932,-14.134747 0,0 -3.27343,-5.7861933 1.99141,-4.3640023 0,0 11.66813,6.4032763 13.51767,18.7824963 0.007,0.0035 4.03922,19.688471 11.05787,23.149936 z"
   fill="#333333"
   p-id="9139"
   id="path2-3"
   style="fill:#ffffff;stroke-width:0.170936" /><text
   xml:space="preserve"
   style="font-size:60px;font-family:'Microsoft JhengHei';-inkscape-font-specification:'Microsoft JhengHei';fill:#ffffff"
   x="184.56175"
   y="88.204613"
   id="text505-7"><tspan
     sodipodi:role="line"
     id="tspan503-9"
     x="184.56175"
     y="88.204613"
     style="font-style:normal;font-variant:normal;font-weight:bold;font-stretch:normal;font-family:'Microsoft YaHei';-inkscape-font-specification:'Microsoft YaHei Bold';fill:#ffffff">往</tspan></text><text
   xml:space="preserve"
   style="font-size:60px;font-family:'Microsoft JhengHei';-inkscape-font-specification:'Microsoft JhengHei';fill:#ff0000"
   x="153.35277"
   y="86.271019"
   id="text505-6"><tspan
     sodipodi:role="line"
     id="tspan503-1"
     x="153.35277"
     y="86.271019"
     style="font-style:normal;font-variant:normal;font-weight:bold;font-stretch:normal;font-family:'Microsoft YaHei';-inkscape-font-specification:'Microsoft YaHei Bold';fill:#ff0000">·</tspan></text><text
   xml:space="preserve"
   style="font-size:60px;font-family:'Microsoft JhengHei';-inkscape-font-specification:'Microsoft JhengHei';fill:#ffffff"
   x="89.245338"
   y="88.204613"
   id="text505"><tspan
     sodipodi:role="line"
     id="tspan503"
     x="89.245338"
     y="88.204613"
     style="font-style:normal;font-variant:normal;font-weight:bold;font-stretch:normal;font-family:'Microsoft YaHei';-inkscape-font-specification:'Microsoft YaHei Bold';fill:#ffffff">前</tspan></text><g
   id="g756"
   transform="translate(82.160364,-0.9542763)"
   style="fill:#ffffff"><text
     xml:space="preserve"
     style="font-size:26.356px;font-family:'Microsoft JhengHei';-inkscape-font-specification:'Microsoft JhengHei';fill:#ffffff;stroke-width:0.439267"
     x="36.411888"
     y="29.220579"
     id="text559"><tspan
       sodipodi:role="line"
       id="tspan557"
       x="36.411888"
       y="29.220579"
       style="font-style:normal;font-variant:normal;font-weight:bold;font-stretch:normal;font-family:'Microsoft JhengHei';-inkscape-font-specification:'Microsoft JhengHei Bold';fill:#ffffff;stroke-width:0.439267">え</tspan></text><text
     xml:space="preserve"
     style="font-size:26.356px;font-family:'Microsoft JhengHei';-inkscape-font-specification:'Microsoft JhengHei';fill:#ffffff;stroke-width:0.439267"
     x="10.944527"
     y="29.37501"
     id="text559-7"><tspan
       sodipodi:role="line"
       id="tspan557-5"
       x="10.944527"
       y="29.37501"
       style="font-style:normal;font-variant:normal;font-weight:bold;font-stretch:normal;font-family:'Microsoft JhengHei';-inkscape-font-specification:'Microsoft JhengHei Bold';fill:#ffffff;stroke-width:0.439267">ま</tspan></text></g><text
   xml:space="preserve"
   style="font-size:22.8827px;font-family:'Microsoft JhengHei';-inkscape-font-specification:'Microsoft JhengHei';fill:#ffffff;stroke-width:0.381379"
   x="203.04927"
   y="29.29512"
   id="text563"><tspan
     sodipodi:role="line"
     id="tspan561"
     x="203.04927"
     y="29.29512"
     style="font-style:normal;font-variant:normal;font-weight:bold;font-stretch:normal;font-family:'Microsoft JhengHei';-inkscape-font-specification:'Microsoft JhengHei Bold';fill:#ffffff;stroke-width:0.381379">を</tspan></text><text
   xml:space="preserve"
   style="font-size:14.1445px;font-family:'Microsoft JhengHei';-inkscape-font-specification:'Microsoft JhengHei';fill:#ffffff;stroke-width:0.235742"
   x="96.51255"
   y="113.12026"
   id="text567"><tspan
     sodipodi:role="line"
     id="tspan565"
     x="96.51255"
     y="113.12026"
     style="font-style:normal;font-variant:normal;font-weight:bold;font-stretch:normal;font-family:'Microsoft JhengHei';-inkscape-font-specification:'Microsoft JhengHei Bold';fill:#ffffff;stroke-width:0.235742">ナビゲーションページ</tspan></text></svg>
